<svg xmlns="http://www.w3.org/2000/svg" width="16.573" height="16.908" viewBox="0 0 16.573 16.908">
  <g id="_7123953_logo_google_g_icon" data-name="7123953_logo_google_g_icon" transform="translate(0 0)">
    <path id="Path_281" data-name="Path 281" d="M280.22,224.818a9.939,9.939,0,0,0-.146-1.718H272.1v3.255h4.566a3.913,3.913,0,0,1-1.69,2.569v2.112H277.7A8.256,8.256,0,0,0,280.22,224.818Z" transform="translate(-263.646 -216.169)" fill="#4285f4"/>
    <path id="Path_282" data-name="Path 282" d="M36.454,331.134a8.092,8.092,0,0,0,5.6-2.041l-2.724-2.112a5.127,5.127,0,0,1-7.623-2.681H28.9v2.177A8.455,8.455,0,0,0,36.454,331.134Z" transform="translate(-28.001 -314.226)" fill="#34a853"/>
    <path id="Path_283" data-name="Path 283" d="M3.657,155.414a5.064,5.064,0,0,1,0-3.237V150H.849a8.461,8.461,0,0,0,0,7.592Z" transform="translate(0.05 -145.34)" fill="#fbbc04"/>
    <path id="Path_284" data-name="Path 284" d="M36.454,3.328A4.594,4.594,0,0,1,39.7,4.595l2.414-2.414a8.125,8.125,0,0,0-5.656-2.2A8.452,8.452,0,0,0,28.9,4.642l2.808,2.177a5.056,5.056,0,0,1,4.746-3.491Z" transform="translate(-28.001 0.018)" fill="#ea4335"/>
  </g>
</svg>
