<svg id="Group_459" data-name="Group 459" xmlns="http://www.w3.org/2000/svg" width="173.514" height="44.771" viewBox="0 0 173.514 44.771">
  <g id="Group_457" data-name="Group 457" transform="translate(115.997 6.172)">
    <path id="Path_373" data-name="Path 373" d="M466.088,78.235V57.383h2.328v1.959a5.736,5.736,0,0,1,1.86-1.725,5.107,5.107,0,0,1,2.512-.575,5.957,5.957,0,0,1,3.407.994,6.1,6.1,0,0,1,2.229,2.8,10.236,10.236,0,0,1,.752,3.967,10.074,10.074,0,0,1-.831,4.166A6.312,6.312,0,0,1,472.6,72.8a4.806,4.806,0,0,1-2.292-.54,5.213,5.213,0,0,1-1.668-1.363v7.339Zm2.314-13.23a6.556,6.556,0,0,0,1.178,4.3,3.613,3.613,0,0,0,2.853,1.391,3.7,3.7,0,0,0,2.917-1.441,6.836,6.836,0,0,0,1.214-4.464,6.663,6.663,0,0,0-1.185-4.315,3.568,3.568,0,0,0-2.832-1.434,3.679,3.679,0,0,0-2.889,1.526A6.827,6.827,0,0,0,468.4,65.005Z" transform="translate(-466.088 -51.648)" fill="#359e5b"/>
    <path id="Path_374" data-name="Path 374" d="M530.336,38.565V35.627h2.555v2.938Zm0,17.871V41.362h2.555V56.437Z" transform="translate(-514.154 -35.627)" fill="#359e5b"/>
    <path id="Path_375" data-name="Path 375" d="M557.326,55.543l.369,2.257a9.495,9.495,0,0,1-1.93.227,4.369,4.369,0,0,1-2.158-.44,2.46,2.46,0,0,1-1.079-1.157,9.14,9.14,0,0,1-.312-3.016V44.74h-1.874V42.753h1.874V39.02l2.541-1.533v5.266h2.569V44.74h-2.569v8.815a4.435,4.435,0,0,0,.135,1.405,1.058,1.058,0,0,0,.44.5,1.7,1.7,0,0,0,.873.184A8.315,8.315,0,0,0,557.326,55.543Z" transform="translate(-529.121 -37.019)" fill="#359e5b"/>
    <path id="Path_376" data-name="Path 376" d="M595.507,66.936l2.512.326a6.518,6.518,0,0,1-2.108,4.067,6.141,6.141,0,0,1-4.166,1.469,6.47,6.47,0,0,1-4.975-2.023,8.2,8.2,0,0,1-1.881-5.8A10.5,10.5,0,0,1,585.7,60.7a5.642,5.642,0,0,1,2.463-2.747,7.308,7.308,0,0,1,3.6-.916,6.256,6.256,0,0,1,4.017,1.242,5.7,5.7,0,0,1,2,3.527l-2.484.383a4.128,4.128,0,0,0-1.256-2.286,3.252,3.252,0,0,0-2.179-.766,3.965,3.965,0,0,0-3.137,1.384,6.57,6.57,0,0,0-1.206,4.379,6.791,6.791,0,0,0,1.164,4.415,3.789,3.789,0,0,0,3.038,1.377,3.58,3.58,0,0,0,2.512-.923A4.583,4.583,0,0,0,595.507,66.936Z" transform="translate(-554.966 -51.648)" fill="#359e5b"/>
    <path id="Path_377" data-name="Path 377" d="M645.7,56.437V35.627h2.555v7.467a5.709,5.709,0,0,1,4.514-2.073,6.084,6.084,0,0,1,2.91.66,3.876,3.876,0,0,1,1.767,1.824,8.407,8.407,0,0,1,.532,3.378v9.553h-2.555V46.883a3.946,3.946,0,0,0-.831-2.789,3.087,3.087,0,0,0-2.349-.873,4.141,4.141,0,0,0-2.136.589,3.324,3.324,0,0,0-1.427,1.6,7.339,7.339,0,0,0-.426,2.782v8.247Z" transform="translate(-600.46 -35.627)" fill="#359e5b"/>
  </g>
  <g id="Group_458" data-name="Group 458" transform="translate(94.595 11.824)">
    <path id="Path_378" data-name="Path 378" d="M383.4,74.1a1.869,1.869,0,0,1-1.359-.53,2.673,2.673,0,0,1-.707-1.019,4.108,4.108,0,0,1-.217-1.3,7.653,7.653,0,0,1,.163-1.549,10.66,10.66,0,0,1,1.386-3.7,22.5,22.5,0,0,1,4.92-5.9,7.968,7.968,0,0,1,3.968-2.011l.435-.027a2.925,2.925,0,0,1,2.446,1.114,4.347,4.347,0,0,1,.87,2.419,1.154,1.154,0,0,1-.245.707,1.085,1.085,0,0,1-.9.408,1.131,1.131,0,0,1-1.06-.707q-.408-.979-.788-1.006l-.272.109a5.862,5.862,0,0,0-2.093,1.6,29.849,29.849,0,0,0-3.941,5.246q-.462.788-.951,1.522a16.047,16.047,0,0,0-1.087,1.848,2.035,2.035,0,0,1-.1.245.32.32,0,0,0-.041.136l.082-.054a9.752,9.752,0,0,0,1.848-1.576Q386.8,68.966,389.192,66a27.758,27.758,0,0,1,2.664-3.044,1.345,1.345,0,0,1,.625-.3.876.876,0,0,1,.326-.054,1.05,1.05,0,0,1,.8.421,1.22,1.22,0,0,1,.258.693,1.77,1.77,0,0,1,.027.435,7.7,7.7,0,0,0,1.169,3.289,5.009,5.009,0,0,0,4.43,2.256,5.911,5.911,0,0,0,.979-.082,11.646,11.646,0,0,0,5.871-3.044c.544-.471,4.589-4.382,5.695-5.615a1.227,1.227,0,0,1,.9-.381A1.207,1.207,0,0,1,414.1,61.8a1.143,1.143,0,0,1-.516.951c-.2.127-3.756,3.45-4.227,3.848a33.651,33.651,0,0,1-5.028,3.4,11.082,11.082,0,0,1-5.083,1.359,8.727,8.727,0,0,1-2.5-.381,6.941,6.941,0,0,1-4.621-5.518l-1.712,2.12q-1.414,1.875-3.207,3.833a10.693,10.693,0,0,1-2.12,2.011A2.473,2.473,0,0,1,383.4,74.1Z" transform="translate(-381.119 -58.067)" fill="#fff"/>
  </g>
  <path id="Path_379" data-name="Path 379" d="M466.088,96.772v1.767l3.225-1.1a4.732,4.732,0,0,1-.8-2.316Z" transform="translate(-350.091 -73.962)" fill="#359e5b"/>
  <path id="Path_380" data-name="Path 380" d="M214.326,120.816l-15.677-7.336v16.742a38.614,38.614,0,0,1,4.99-4.373l4.239,6.621,3.845-2.248-4.279-6.793A23.075,23.075,0,0,1,214.326,120.816Z" transform="translate(-150.013 -87.699)" fill="#fff"/>
  <path id="Path_381" data-name="Path 381" d="M101.869,39.456a1.98,1.98,0,0,1-1.439-.561,2.826,2.826,0,0,1-.748-1.08,4.348,4.348,0,0,1-.23-1.381,8.109,8.109,0,0,1,.173-1.641,11.289,11.289,0,0,1,1.468-3.914,26.146,26.146,0,0,1,1.733-2.585V18.232a7.129,7.129,0,0,0-7.108-7.108H12.661a7.129,7.129,0,0,0-7.108,7.108V36.684a7.129,7.129,0,0,0,7.108,7.108H53.343V35.548L70.96,43.792H84.514L81.651,50.56l7.383-6.768h6.682a7.133,7.133,0,0,0,6.556-4.37A2.542,2.542,0,0,1,101.869,39.456Z" transform="translate(-5.553 -11.124)" fill="#afea30"/>
  <text id="BOOK" transform="translate(4.807 24.786)" fill="#141414" font-size="27" font-family="Arial-BoldMT, Arial" font-weight="700"><tspan x="0" y="0">BOOK</tspan></text>
</svg>
