<svg xmlns="http://www.w3.org/2000/svg" width="305.457" height="78.816" viewBox="0 0 305.457 78.816">
  <g id="Layer_1" data-name="Layer 1" transform="translate(-5.553 -11.124)">
    <g id="Group_459" data-name="Group 459" transform="translate(5.553 11.124)">
      <g id="Group_457" data-name="Group 457" transform="translate(204.202 10.865)">
        <path id="Path_373" data-name="Path 373" d="M466.088,94.351V57.642h4.1V61.09a10.1,10.1,0,0,1,3.274-3.036,8.991,8.991,0,0,1,4.423-1.012,10.487,10.487,0,0,1,6,1.75,10.736,10.736,0,0,1,3.924,4.936,18.019,18.019,0,0,1,1.324,6.984,17.733,17.733,0,0,1-1.462,7.334,11.112,11.112,0,0,1-10.108,6.734,8.461,8.461,0,0,1-4.035-.95,9.177,9.177,0,0,1-2.936-2.4V94.351Zm4.073-23.29q0,5.123,2.074,7.572a6.361,6.361,0,0,0,5.023,2.449,6.5,6.5,0,0,0,5.135-2.536q2.136-2.536,2.136-7.859,0-5.072-2.087-7.6a6.281,6.281,0,0,0-4.985-2.524,6.477,6.477,0,0,0-5.085,2.687Q470.161,65.939,470.161,71.061Z" transform="translate(-466.088 -47.547)" fill="#359e5b"/>
        <path id="Path_374" data-name="Path 374" d="M530.336,40.8V35.627h4.5V40.8Zm0,31.461V45.722h4.5V72.261Z" transform="translate(-501.848 -35.627)" fill="#359e5b"/>
        <path id="Path_375" data-name="Path 375" d="M562.637,69.273l.649,3.973a16.714,16.714,0,0,1-3.4.4,7.692,7.692,0,0,1-3.8-.775,4.331,4.331,0,0,1-1.9-2.037,16.094,16.094,0,0,1-.55-5.31V50.256h-3.3v-3.5h3.3V40.186l4.473-2.7v9.271h4.523v3.5h-4.523V65.774a7.807,7.807,0,0,0,.238,2.474,1.865,1.865,0,0,0,.774.874,2.991,2.991,0,0,0,1.537.325A14.636,14.636,0,0,0,562.637,69.273Z" transform="translate(-512.984 -36.662)" fill="#359e5b"/>
        <path id="Path_376" data-name="Path 376" d="M603.581,74.46l4.422.575a11.475,11.475,0,0,1-3.711,7.16,10.811,10.811,0,0,1-7.334,2.586,11.391,11.391,0,0,1-8.759-3.561q-3.312-3.56-3.311-10.208a18.478,18.478,0,0,1,1.424-7.522,9.932,9.932,0,0,1,4.336-4.835,12.865,12.865,0,0,1,6.335-1.612,11.012,11.012,0,0,1,7.072,2.187,10.029,10.029,0,0,1,3.523,6.21l-4.373.675a7.267,7.267,0,0,0-2.212-4.023,5.724,5.724,0,0,0-3.836-1.349,6.98,6.98,0,0,0-5.523,2.436q-2.124,2.436-2.124,7.709,0,5.347,2.049,7.772a6.669,6.669,0,0,0,5.348,2.424,6.3,6.3,0,0,0,4.423-1.624A8.067,8.067,0,0,0,603.581,74.46Z" transform="translate(-532.212 -47.547)" fill="#359e5b"/>
        <path id="Path_377" data-name="Path 377" d="M645.7,72.261V35.627h4.5V48.771a10.05,10.05,0,0,1,7.947-3.649,10.711,10.711,0,0,1,5.123,1.163,6.825,6.825,0,0,1,3.111,3.211,14.8,14.8,0,0,1,.937,5.947V72.261h-4.5V55.443q0-3.373-1.462-4.91A5.435,5.435,0,0,0,657.219,49a7.29,7.29,0,0,0-3.76,1.037,5.853,5.853,0,0,0-2.512,2.812,12.921,12.921,0,0,0-.75,4.9V72.261Z" transform="translate(-566.059 -35.627)" fill="#359e5b"/>
      </g>
      <g id="Group_458" data-name="Group 458" transform="translate(166.527 20.815)">
        <path id="Path_378" data-name="Path 378" d="M385.138,86.3a3.29,3.29,0,0,1-2.393-.933A4.7,4.7,0,0,1,381.5,83.57a7.232,7.232,0,0,1-.383-2.3,13.469,13.469,0,0,1,.287-2.727,18.767,18.767,0,0,1,2.44-6.507,39.614,39.614,0,0,1,8.661-10.383,14.028,14.028,0,0,1,6.986-3.541l.766-.048a5.149,5.149,0,0,1,4.306,1.962,7.654,7.654,0,0,1,1.531,4.258,2.031,2.031,0,0,1-.431,1.244,1.91,1.91,0,0,1-1.579.718A1.991,1.991,0,0,1,402.22,65q-.718-1.723-1.387-1.771l-.479.192a10.32,10.32,0,0,0-3.684,2.823,52.54,52.54,0,0,0-6.938,9.235q-.814,1.388-1.675,2.679a28.246,28.246,0,0,0-1.914,3.254,3.577,3.577,0,0,1-.168.431.563.563,0,0,0-.072.239l.144-.1a17.169,17.169,0,0,0,3.254-2.775q1.818-1.961,6.029-7.177a48.883,48.883,0,0,1,4.689-5.359,2.368,2.368,0,0,1,1.1-.526,1.542,1.542,0,0,1,.574-.1,1.849,1.849,0,0,1,1.411.742,2.147,2.147,0,0,1,.455,1.22,3.109,3.109,0,0,1,.047.765,13.562,13.562,0,0,0,2.057,5.79,8.819,8.819,0,0,0,7.8,3.972,10.4,10.4,0,0,0,1.723-.144,20.5,20.5,0,0,0,10.335-5.359c.957-.829,8.079-7.715,10.025-9.884a2.159,2.159,0,0,1,1.579-.67,2.125,2.125,0,0,1,2.057,2.153,2.013,2.013,0,0,1-.909,1.675c-.352.223-6.612,6.073-7.442,6.774a59.241,59.241,0,0,1-8.852,5.981,19.508,19.508,0,0,1-8.948,2.393,15.363,15.363,0,0,1-4.4-.67q-6.412-2.153-8.134-9.713l-3.014,3.732q-2.489,3.3-5.646,6.747A18.824,18.824,0,0,1,388.1,85.1,4.354,4.354,0,0,1,385.138,86.3Z" transform="translate(-381.119 -58.067)" fill="#fff"/>
      </g>
      <path id="Path_379" data-name="Path 379" d="M466.088,98.03v3.11l5.677-1.944s-.923-1-1.412-4.078Z" transform="translate(-261.886 -57.875)" fill="#359e5b"/>
      <path id="Path_380" data-name="Path 380" d="M226.247,126.394l-27.6-12.914v29.473a67.981,67.981,0,0,1,8.784-7.7l7.463,11.656,6.769-3.957-7.533-11.959A40.622,40.622,0,0,1,226.247,126.394Z" transform="translate(-113.03 -68.095)" fill="#fff"/>
      <path id="Path_381" data-name="Path 381" d="M175.109,61a3.485,3.485,0,0,1-2.534-.988,4.974,4.974,0,0,1-1.317-1.9,7.654,7.654,0,0,1-.405-2.432,14.275,14.275,0,0,1,.3-2.888,19.873,19.873,0,0,1,2.584-6.89,46.024,46.024,0,0,1,3.051-4.55V23.638a12.55,12.55,0,0,0-12.513-12.514H18.067A12.551,12.551,0,0,0,5.553,23.638V56.12A12.55,12.55,0,0,0,18.067,68.633H89.683V54.121L120.7,68.633h23.86l-5.041,11.915,13-11.915h11.763a12.557,12.557,0,0,0,11.541-7.693A4.475,4.475,0,0,1,175.109,61Z" transform="translate(-5.553 -11.124)" fill="#afea30"/>
      <text id="BOOK" transform="translate(8.463 46.384)" fill="#141414" font-size="50" font-family="Arial-BoldMT, Arial" font-weight="700"><tspan x="0" y="0">BOOK</tspan></text>
    </g>
  </g>
</svg>
