<svg id="Layer_1_copy" data-name="Layer 1 copy" xmlns="http://www.w3.org/2000/svg" width="197.449" height="50.947" viewBox="0 0 197.449 50.947">
  <g id="Group_473" data-name="Group 473">
    <g id="Group_470" data-name="Group 470" transform="translate(131.997 7.023)">
      <path id="Path_400" data-name="Path 400" d="M466.088,81.159V57.43h2.649v2.229a6.528,6.528,0,0,1,2.116-1.962,5.812,5.812,0,0,1,2.859-.654,6.779,6.779,0,0,1,3.877,1.131,6.94,6.94,0,0,1,2.536,3.19,11.647,11.647,0,0,1,.856,4.515,11.463,11.463,0,0,1-.945,4.741,7.183,7.183,0,0,1-6.534,4.353,5.469,5.469,0,0,1-2.608-.614,5.932,5.932,0,0,1-1.9-1.551v8.351ZM468.721,66.1A7.461,7.461,0,0,0,470.062,71a4.112,4.112,0,0,0,3.247,1.583,4.2,4.2,0,0,0,3.32-1.639,7.779,7.779,0,0,0,1.381-5.08,7.582,7.582,0,0,0-1.349-4.91,4.06,4.06,0,0,0-3.222-1.631,4.187,4.187,0,0,0-3.287,1.737A7.769,7.769,0,0,0,468.721,66.1Z" transform="translate(-466.088 -50.904)" fill="#359e5b"/>
      <path id="Path_401" data-name="Path 401" d="M530.336,38.971V35.627h2.907v3.344Zm0,20.337V42.153h2.907V59.307Z" transform="translate(-511.921 -35.627)" fill="#359e5b"/>
      <path id="Path_402" data-name="Path 402" d="M558.289,58.033l.42,2.568a10.8,10.8,0,0,1-2.2.259,4.972,4.972,0,0,1-2.455-.5,2.8,2.8,0,0,1-1.228-1.316,10.4,10.4,0,0,1-.355-3.432v-9.87h-2.132V43.48h2.132V39.231l2.891-1.744V43.48h2.924v2.261h-2.924V55.772a5.049,5.049,0,0,0,.154,1.6,1.206,1.206,0,0,0,.5.565,1.933,1.933,0,0,0,.994.21A9.461,9.461,0,0,0,558.289,58.033Z" transform="translate(-526.193 -36.954)" fill="#359e5b"/>
      <path id="Path_403" data-name="Path 403" d="M596.972,68.3l2.859.371a7.418,7.418,0,0,1-2.4,4.628,6.988,6.988,0,0,1-4.741,1.672,7.363,7.363,0,0,1-5.661-2.3q-2.141-2.3-2.141-6.6a11.945,11.945,0,0,1,.921-4.862,6.42,6.42,0,0,1,2.8-3.126,8.316,8.316,0,0,1,4.095-1.042,7.119,7.119,0,0,1,4.571,1.414,6.483,6.483,0,0,1,2.277,4.014l-2.827.436a4.7,4.7,0,0,0-1.43-2.6,3.7,3.7,0,0,0-2.479-.872,4.512,4.512,0,0,0-3.57,1.575q-1.373,1.574-1.373,4.983,0,3.457,1.324,5.024a4.311,4.311,0,0,0,3.457,1.567,4.074,4.074,0,0,0,2.859-1.05A5.214,5.214,0,0,0,596.972,68.3Z" transform="translate(-550.839 -50.904)" fill="#359e5b"/>
      <path id="Path_404" data-name="Path 404" d="M645.7,59.307V35.627h2.907v8.5a6.5,6.5,0,0,1,5.137-2.359,6.924,6.924,0,0,1,3.311.752,4.412,4.412,0,0,1,2.011,2.076,9.568,9.568,0,0,1,.606,3.844V59.307h-2.907V48.436a4.49,4.49,0,0,0-.945-3.174,3.513,3.513,0,0,0-2.673-.993,4.712,4.712,0,0,0-2.431.67,3.783,3.783,0,0,0-1.624,1.817,8.351,8.351,0,0,0-.485,3.166v9.385Z" transform="translate(-594.219 -35.627)" fill="#359e5b"/>
    </g>
    <g id="Group_472" data-name="Group 472" transform="translate(107.644 13.455)">
      <g id="Group_471" data-name="Group 471">
        <path id="Path_405" data-name="Path 405" d="M383.717,76.315a2.127,2.127,0,0,1-1.547-.6,3.042,3.042,0,0,1-.8-1.16,4.675,4.675,0,0,1-.247-1.485A8.706,8.706,0,0,1,381.3,71.3a12.132,12.132,0,0,1,1.578-4.206,25.608,25.608,0,0,1,5.6-6.712A9.067,9.067,0,0,1,393,58.1l.495-.031a3.328,3.328,0,0,1,2.783,1.268,4.947,4.947,0,0,1,.99,2.753,1.313,1.313,0,0,1-.279.8,1.235,1.235,0,0,1-1.02.464,1.287,1.287,0,0,1-1.206-.8q-.464-1.113-.9-1.144l-.31.124a6.671,6.671,0,0,0-2.382,1.825,33.963,33.963,0,0,0-4.485,5.969q-.526.9-1.083,1.732a18.255,18.255,0,0,0-1.237,2.1,2.312,2.312,0,0,1-.108.278.364.364,0,0,0-.046.155l.093-.062a11.1,11.1,0,0,0,2.1-1.794q1.175-1.268,3.9-4.639a31.6,31.6,0,0,1,3.031-3.464,1.53,1.53,0,0,1,.711-.34,1,1,0,0,1,.371-.062,1.2,1.2,0,0,1,.912.48,1.388,1.388,0,0,1,.294.788,2.011,2.011,0,0,1,.031.495,8.767,8.767,0,0,0,1.33,3.743,5.7,5.7,0,0,0,5.042,2.567,6.727,6.727,0,0,0,1.114-.093,13.252,13.252,0,0,0,6.681-3.464c.619-.536,5.222-4.987,6.48-6.389a1.4,1.4,0,0,1,1.021-.433,1.373,1.373,0,0,1,1.33,1.392,1.3,1.3,0,0,1-.587,1.083c-.227.144-4.274,3.926-4.81,4.379a38.293,38.293,0,0,1-5.722,3.866,12.61,12.61,0,0,1-5.784,1.547,9.931,9.931,0,0,1-2.846-.433q-4.145-1.392-5.258-6.279L391.7,68.892q-1.609,2.134-3.65,4.361a12.167,12.167,0,0,1-2.413,2.289A2.814,2.814,0,0,1,383.717,76.315Z" transform="translate(-381.119 -58.067)" fill="#141414"/>
      </g>
    </g>
    <path id="Path_406" data-name="Path 406" d="M466.088,97v2.01l3.67-1.257a5.385,5.385,0,0,1-.913-2.636Z" transform="translate(-334.091 -71.044)" fill="#359e5b"/>
    <path id="Path_407" data-name="Path 407" d="M216.489,121.828l-17.84-8.348v19.052a43.941,43.941,0,0,1,5.678-4.976l4.824,7.534,4.376-2.558-4.87-7.73A26.259,26.259,0,0,1,216.489,121.828Z" transform="translate(-143.304 -84.143)" fill="#141414"/>
    <path id="Path_408" data-name="Path 408" d="M115.155,43.364a2.253,2.253,0,0,1-1.638-.639,3.215,3.215,0,0,1-.852-1.228,4.947,4.947,0,0,1-.262-1.572,9.228,9.228,0,0,1,.2-1.867,12.846,12.846,0,0,1,1.67-4.454,29.749,29.749,0,0,1,1.972-2.941V19.213a8.112,8.112,0,0,0-8.089-8.089H13.642a8.113,8.113,0,0,0-8.089,8.089v21A8.113,8.113,0,0,0,13.642,48.3H59.935V38.917L79.983,48.3H95.406L92.148,56l8.4-7.7h7.6a8.117,8.117,0,0,0,7.46-4.973A2.894,2.894,0,0,1,115.155,43.364Z" transform="translate(-5.553 -11.124)" fill="#afea30"/>
    <text id="BOOK" transform="translate(5.47 29.895)" fill="#141414" font-size="32" font-family="Arial-BoldMT, Arial" font-weight="700"><tspan x="0" y="0">BOOK</tspan></text>
  </g>
</svg>
