<svg xmlns="http://www.w3.org/2000/svg" width="35.678" height="36.011" viewBox="0 0 35.678 36.011">
  <g id="_3689820_badminton_olimpiade_set_shuttlecock_sport_icon" data-name="3689820_badminton_olimpiade_set_shuttlecock_sport_icon" transform="matrix(0.719, 0.695, -0.695, 0.719, -6.044, -33.972)">
    <path id="Path_321" data-name="Path 321" d="M87.231,179.35h0a5.857,5.857,0,0,1-5.856-5.856v-3.977H93.088v3.977A5.856,5.856,0,0,1,87.231,179.35Z" transform="translate(-34.03 -141.059)" fill="none" stroke="#afea30" stroke-linejoin="round" stroke-miterlimit="10" stroke-width="2"/>
    <path id="Path_322" data-name="Path 322" d="M59.025,28.457H47.378L42.457,9.98l.1-.143a3.961,3.961,0,0,1,6.606.276l.522.869.54-.923a3.444,3.444,0,0,1,5.948,0l.54.923.522-.868a3.961,3.961,0,0,1,6.606-.277l.1.143Z" transform="translate(0 0)" fill="none" stroke="#afea30" stroke-linejoin="round" stroke-miterlimit="10" stroke-width="2"/>
    <line id="Line_16" data-name="Line 16" x2="12.058" transform="translate(47.298 30.779)" fill="none" stroke="#afea30" stroke-linejoin="round" stroke-miterlimit="10" stroke-width="2"/>
    <line id="Line_17" data-name="Line 17" x2="1.653" y2="17.475" transform="translate(49.688 11.006)" fill="none" stroke="#afea30" stroke-linejoin="round" stroke-miterlimit="10" stroke-width="2"/>
    <line id="Line_18" data-name="Line 18" y1="17.475" x2="1.653" transform="translate(55.062 11.006)" fill="none" stroke="#afea30" stroke-linejoin="round" stroke-miterlimit="10" stroke-width="2"/>
    <path id="Path_323" data-name="Path 323" d="M56.193,76.461l3.163,1,2.888-1,2.969,1,2.968-1,2.888,1,3.163-1" transform="translate(-12.011 -59.692)" fill="none" stroke="#afea30" stroke-linejoin="round" stroke-miterlimit="10" stroke-width="2"/>
    <line id="Line_19" data-name="Line 19" x1="1.653" y2="17.475" transform="translate(55.062 11.006)" fill="none" stroke="#afea30" stroke-linejoin="round" stroke-miterlimit="10" stroke-width="2"/>
  </g>
</svg>
