<svg xmlns="http://www.w3.org/2000/svg" width="31.8" height="31.8" viewBox="0 0 31.8 31.8">
  <g id="Icons" transform="translate(-0.1 0.377)">
    <g id="Group" transform="translate(1 1)">
      <g id="Shape">
        <circle id="Ellipse_212" data-name="Ellipse 212" cx="15" cy="15" r="15" transform="translate(0 -0.477)" fill="none" stroke="#afea30" stroke-linecap="round" stroke-linejoin="round" stroke-width="1.8"/>
        <path id="Path_472" data-name="Path 472" d="M5.4.9a43.928,43.928,0,0,1,7.873,11.957,59.765,59.765,0,0,1,3.936,14.614" transform="translate(3.457 0.576)" fill="none" stroke="#afea30" stroke-linecap="round" stroke-linejoin="round" stroke-width="1.8" fill-rule="evenodd"/>
        <path id="Path_473" data-name="Path 473" d="M.2,11.533A36.215,36.215,0,0,0,15.449,9.019Q22.238,6.181,24.966,2.7" transform="translate(0.129 1.729)" fill="none" stroke="#afea30" stroke-linecap="round" stroke-linejoin="round" stroke-width="1.8" fill-rule="evenodd"/>
        <path id="Path_474" data-name="Path 474" d="M3.6,19.333A22.662,22.662,0,0,1,15.877,9.905c4.633-1.421,7.061-1.065,11.341.342" transform="translate(2.305 5.762)" fill="none" stroke="#afea30" stroke-linecap="round" stroke-linejoin="round" stroke-width="1.8" fill-rule="evenodd"/>
      </g>
    </g>
  </g>
</svg>
