<svg xmlns="http://www.w3.org/2000/svg" width="46.412" height="33" viewBox="0 0 46.412 33">
  <g id="_6570723_class_learning_from_home_education_icon" data-name="6570723_class_learning_from_home_education_icon" transform="translate(-3.99 -71.5)">
    <path id="Path_458" data-name="Path 458" d="M44.715,87.288a6.028,6.028,0,0,0,3.318-6.861,6.289,6.289,0,0,0-6.17-4.688h-.12v-1.59A2.2,2.2,0,0,0,39.51,72H6.723A2.2,2.2,0,0,0,4.49,74.149V94.838a2.2,2.2,0,0,0,2.233,2.15H18.348v6.125h-3.81a.444.444,0,1,0,0,.887h20.99a2.879,2.879,0,0,0,2.928-2.821v-7.06a.461.461,0,0,0-.921,0v7.06a1.974,1.974,0,0,1-2.008,1.934H26.148a3.174,3.174,0,0,1,3.171-2.643h4.712a.452.452,0,0,0,.46-.443V96.655a.447.447,0,0,0,.014-.11.44.44,0,0,0-.014-.11V93.8a5.977,5.977,0,0,1,6.079-5.855H42.9A5.977,5.977,0,0,1,48.982,93.8v9.757a.461.461,0,0,0,.921,0V93.8a6.8,6.8,0,0,0-5.187-6.512Zm2.561-5.444a5.42,5.42,0,1,1-5.416-5.217A5.32,5.32,0,0,1,47.276,81.844ZM5.411,94.838v-1h28.16V96.1H6.723a1.289,1.289,0,0,1-1.313-1.263Zm9.127-10.192a2.415,2.415,0,1,1,2.505-2.413,2.461,2.461,0,0,1-2.505,2.413Zm.859.887a4.731,4.731,0,0,1,3.46,1.37l2.365,2.254a.461.461,0,0,0,.347.128.466.466,0,0,0,.331-.16l2.576-3a.649.649,0,0,1,.865-.092.6.6,0,0,1,.255.41.587.587,0,0,1-.134.46l-3.468,4.136a.675.675,0,0,1-.968.06l-2.373-2.188a.473.473,0,0,0-.5-.088.442.442,0,0,0-.279.408V92.95H10.607V88.368a2.894,2.894,0,0,1,2.944-2.835Zm3.87,17.58V96.988h6.168v5.13a.451.451,0,0,0,.008.078,3.808,3.808,0,0,0-.223.917Zm10.052-3.53a4.192,4.192,0,0,0-2.963,1.213V96.988h7.215v2.595Zm4.308-6.634H18.8v-2.68l1.589,1.469a1.622,1.622,0,0,0,2.321-.143l3.469-4.136a1.448,1.448,0,0,0-.188-2.056L28.208,80.7a.43.43,0,0,0-.032-.453.468.468,0,0,0-.43-.188.458.458,0,0,0-.376.275l-2.217,4.7a1.577,1.577,0,0,0-1.388.53L21.508,88.19l-1.986-1.905a5.4,5.4,0,0,0-2.808-1.5,3.228,3.228,0,0,0,1.05-3.68,3.476,3.476,0,0,0-6.469.05,3.231,3.231,0,0,0,1.111,3.663A3.746,3.746,0,0,0,9.686,88.37V92.95H5.411v-18.8a1.29,1.29,0,0,1,1.313-1.263H39.51a1.29,1.29,0,0,1,1.316,1.263v1.677a6.217,6.217,0,0,0-5.214,5.053,6.037,6.037,0,0,0,3.318,6.367A6.855,6.855,0,0,0,33.627,92.948Z" fill="#afea30" stroke="#afea30" stroke-width="1"/>
    <path id="Path_459" data-name="Path 459" d="M210.05,110.35H196.413a.513.513,0,0,0,0,1.025H210.05a.513.513,0,1,0,0-1.025Z" transform="translate(-174.933 -34.494)" fill="#afea30"/>
    <path id="Path_460" data-name="Path 460" d="M314.387,138.46h-1.975a.513.513,0,0,0,0,1.025h1.971a.513.513,0,1,0,0-1.025Z" transform="translate(-279.857 -60.707)" fill="#afea30"/>
    <path id="Path_461" data-name="Path 461" d="M204.958,138.973a.513.513,0,0,0-.513-.513h-8.033a.513.513,0,1,0,0,1.025h8.033a.513.513,0,0,0,.513-.513Z" transform="translate(-174.559 -60.707)" fill="#afea30"/>
    <path id="Path_462" data-name="Path 462" d="M287.322,166.57h-5a.513.513,0,1,0,0,1.025h5a.513.513,0,1,0,0-1.025Z" transform="translate(-252.67 -86.384)" fill="#afea30"/>
    <path id="Path_463" data-name="Path 463" d="M200.226,166.57h-3.813a.513.513,0,0,0,0,1.025h3.814a.513.513,0,1,0,0-1.025Z" transform="translate(-174.339 -86.384)" fill="#afea30"/>
  </g>
</svg>
