<svg xmlns="http://www.w3.org/2000/svg" width="36.796" height="35.044" viewBox="0 0 36.796 35.044">
  <g id="Page-1" transform="translate(-6 -6)">
    <g id="icon-20-basketball-hoop" transform="translate(6 6)">
      <path id="basketball-hoop" d="M17.869,31.129l-.685-2.074h0a12.507,12.507,0,0,0,2.91,1.016h0l.337,1.856a10.494,10.494,0,0,1-2.562-.8Zm.661,2,.662,2h0a14.806,14.806,0,0,0,1.9.412l-.333-1.834a15.168,15.168,0,0,1-2.225-.582Zm4.992-.863V30.513c-.555-.023-1.1-.067-1.62-.131h0l.327,1.8c.418.04.85.068,1.293.085Zm0,1.75v1.754q-.327-.012-.646-.033l-.324-1.784q.477.042.97.062Zm1.752,0v1.754h0q.327-.012.646-.033l.324-1.784q-.477.042-.97.062Zm0-1.75V30.513c.555-.023,1.1-.067,1.62-.131l-.327,1.8c-.418.04-.85.068-1.293.085Zm4.985.865-.664,2h0a14.842,14.842,0,0,1-1.887.41l.333-1.834a15.18,15.18,0,0,0,2.218-.579Zm.663-2,.688-2.075A12.512,12.512,0,0,1,28.7,30.07l-.337,1.856a10.512,10.512,0,0,0,2.557-.8Zm-9.22,7.79c-.987-.309-1.635-.783-1.682-1.319h-.012l-.195-.589c.507.125,1.042.23,1.6.312l.29,1.6Zm1.813.335h.006V37.522l-.325-.016.318,1.75Zm1.759-1.734v1.735h.006l.318-1.75-.325.016Zm3.7-.506-.194.586h0c-.047.535-.695,1.01-1.682,1.319h0l.29-1.6c.553-.082,1.084-.186,1.588-.309ZM15.013,27.151l1.034,3.38h-8.3V7.752H41.044V30.531H32.756l1.03-3.387c.02-.039.039-.078.056-.117h3.7V11.257H11.257v15.77h3.7q.028.063.06.124Zm-.06-1.877H13.009V13.009H35.787V25.274H33.842c-.893-2-4.782-3.5-9.444-3.5s-8.551,1.5-9.444,3.5Zm3.337,12.589-1.707-5.58H6V6H42.8V32.283H32.223L30.5,37.939h-.012c-.347,1.747-2.943,3.1-6.093,3.1-3.2,0-5.821-1.4-6.107-3.181ZM24.4,28.779c4.355,0,7.885-1.177,7.885-2.628s-3.53-2.628-7.885-2.628S16.513,24.7,16.513,26.15s3.53,2.628,7.885,2.628Z" transform="translate(-6 -6)" fill="#afea30" fill-rule="evenodd"/>
    </g>
  </g>
</svg>
