<svg xmlns="http://www.w3.org/2000/svg" width="28.638" height="32.474" viewBox="0 0 28.638 32.474">
  <g id="jump-up-move-exercise-dance-svgrepo-com" transform="translate(-18.925 -4.225)">
    <circle id="Ellipse_213" data-name="Ellipse 213" cx="3.426" cy="3.426" r="3.426" transform="translate(29.818 4.235)" fill="#afea30"/>
    <path id="Path_483" data-name="Path 483" d="M42.289,11.626,47.12,6.795a1.494,1.494,0,0,0-2.114-2.114L40.175,9.512l-1.667,1.667a2.554,2.554,0,0,1-1.812.748H29.791a2.554,2.554,0,0,1-1.812-.748L26.313,9.512,21.482,4.668a1.494,1.494,0,0,0-2.114,2.114L24.2,11.613l4.345,4.345V26.027H22.125A2.144,2.144,0,0,0,20.6,29.676L27,36.069a2.135,2.135,0,0,0,3.019-3.019l-2.744-2.744h5.947V28.6h0v1.707h5.947L36.421,33.05a2.135,2.135,0,1,0,3.019,3.019l6.393-6.393a2.144,2.144,0,0,0-1.523-3.649H37.891V15.971Z" transform="translate(0 0)" fill="#afea30"/>
  </g>
</svg>
