<svg xmlns="http://www.w3.org/2000/svg" width="14.669" height="22.288" viewBox="0 0 14.669 22.288">
  <g id="_7385650_water_liquid_pure_drop_drinking_icon" data-name="7385650_water_liquid_pure_drop_drinking_icon" transform="translate(-110.575 -31.108)">
    <path id="Path_501" data-name="Path 501" d="M120.425,35.393a12.575,12.575,0,0,1-2.173-3.551.368.368,0,0,0-.685,0,12.556,12.556,0,0,1-2.173,3.551c-2.2,2.941-5.2,6.964-4.138,12.19a6.823,6.823,0,0,0,13.308,0C125.628,42.357,122.621,38.332,120.425,35.393Zm3.445,12.048a6.117,6.117,0,0,1-11.921,0c-1-4.914,1.779-8.633,4.012-11.624a20.642,20.642,0,0,0,1.949-2.907,20.594,20.594,0,0,0,1.948,2.907c2.234,2.989,5.014,6.71,4.014,11.624Z" transform="translate(0 0)" fill="#afea30" stroke="#afea30" stroke-width="1"/>
    <path id="Path_502" data-name="Path 502" d="M167.9,320.684a3.961,3.961,0,0,1-3.355-4.17.354.354,0,1,0-.708,0,4.734,4.734,0,0,0,3.971,4.873l.047,0a.354.354,0,0,0,.047-.705Z" transform="translate(-50.296 -271.043)" fill="#afea30" stroke="#afea30" stroke-width="1"/>
  </g>
</svg>
