<svg xmlns="http://www.w3.org/2000/svg" width="30" height="30" viewBox="0 0 30 30">
  <g id="_172468_ball_soccer_football_icon" data-name="172468_ball_soccer_football_icon" transform="translate(0 0.33)">
    <rect id="Rectangle_79" data-name="Rectangle 79" width="30" height="30" transform="translate(0 -0.33)" fill="none"/>
    <g id="Group_388" data-name="Group 388" transform="translate(1.192 1.296)">
      <path id="Path_292" data-name="Path 292" d="M15.711,2A13.711,13.711,0,1,0,29.422,15.711,13.712,13.712,0,0,0,15.711,2Z" transform="translate(-2 -2)" fill="none" stroke="#afea30" stroke-linecap="round" stroke-linejoin="round" stroke-miterlimit="10" stroke-width="1.5"/>
    </g>
    <path id="Path_293" data-name="Path 293" d="M17.131,26.837,14.8,19.647,20.9,15.2l6.1,4.444-2.328,7.191Z" transform="translate(-5.978 -6.036)" fill="none" stroke="#afea30" stroke-linecap="round" stroke-linejoin="round" stroke-miterlimit="10" stroke-width="1.5"/>
    <path id="Path_294" data-name="Path 294" d="M26.7,3.788,21.508,6,16.316,3.788" transform="translate(-6.589 -1.426)" fill="none" stroke="#afea30" stroke-linecap="round" stroke-linejoin="round" stroke-miterlimit="10" stroke-width="1.5"/>
    <path id="Path_295" data-name="Path 295" d="M5.472,10.106l.5,5.641L2.263,20.016" transform="translate(-0.914 -3.978)" fill="none" stroke="#afea30" stroke-linecap="round" stroke-linejoin="round" stroke-miterlimit="10" stroke-width="1.5"/>
    <path id="Path_296" data-name="Path 296" d="M5.576,36.957l5.5,1.267,2.9,4.856" transform="translate(-2.252 -14.822)" fill="none" stroke="#afea30" stroke-linecap="round" stroke-linejoin="round" stroke-miterlimit="10" stroke-width="1.5"/>
    <path id="Path_297" data-name="Path 297" d="M30.388,43.078l2.9-4.859,5.5-1.267" transform="translate(-12.273 -14.82)" fill="none" stroke="#afea30" stroke-linecap="round" stroke-linejoin="round" stroke-miterlimit="10" stroke-width="1.5"/>
    <path id="Path_298" data-name="Path 298" d="M45.279,20.014l-3.711-4.271.5-5.638" transform="translate(-16.788 -3.978)" fill="none" stroke="#afea30" stroke-linecap="round" stroke-linejoin="round" stroke-miterlimit="10" stroke-width="1.5"/>
    <line id="Line_11" data-name="Line 11" y2="4.589" transform="translate(14.919 4.578)" fill="none" stroke="#afea30" stroke-linecap="round" stroke-linejoin="round" stroke-miterlimit="10" stroke-width="1.5"/>
    <line id="Line_12" data-name="Line 12" y1="2.023" x2="3.765" transform="translate(21.016 11.766)" fill="none" stroke="#afea30" stroke-linecap="round" stroke-linejoin="round" stroke-miterlimit="10" stroke-width="1.5"/>
    <line id="Line_13" data-name="Line 13" x2="2.328" y2="2.599" transform="translate(18.688 20.801)" fill="none" stroke="#afea30" stroke-linecap="round" stroke-linejoin="round" stroke-miterlimit="10" stroke-width="1.5"/>
    <line id="Line_14" data-name="Line 14" x1="2.329" y2="2.601" transform="translate(8.825 20.801)" fill="none" stroke="#afea30" stroke-linecap="round" stroke-linejoin="round" stroke-miterlimit="10" stroke-width="1.5"/>
    <line id="Line_15" data-name="Line 15" x2="3.766" y2="1.841" transform="translate(5.057 11.77)" fill="none" stroke="#afea30" stroke-linecap="round" stroke-linejoin="round" stroke-miterlimit="10" stroke-width="1.5"/>
  </g>
</svg>
