<svg xmlns="http://www.w3.org/2000/svg" width="43.236" height="43.236" viewBox="0 0 43.236 43.236"><g transform="translate(-8.647 -8.647)"><circle cx="21.618" cy="21.618" r="21.618" transform="translate(8.647 8.647)" fill="#b7eb38"/><path d="M107.532,3079.2l-4.315,1.617a3,3,0,0,0-1.807,2.612v6.425a4.2,4.2,0,0,0,1.5,2.975l3.718,2.776a3.935,3.935,0,0,0,4.445,0l3.718-2.776a4.2,4.2,0,0,0,1.5-2.975v-6.425a3,3,0,0,0-1.807-2.612l-4.315-1.617A4.4,4.4,0,0,0,107.532,3079.2Z" transform="translate(-78.573 -3057.382)" fill="none" stroke="#0b251c" stroke-linecap="round" stroke-linejoin="round" stroke-width="2"/><path d="M109.754,3087.444h-.112a1.526,1.526,0,1,1,.112,0Z" transform="translate(-79.489 -3058.112)" fill="none" stroke="#0b251c" stroke-linecap="round" stroke-linejoin="round" stroke-width="2"/><path d="M107.913,3090.646a1.126,1.126,0,0,0,0,2.015,3.348,3.348,0,0,0,3.433,0,1.126,1.126,0,0,0,0-2.015A3.348,3.348,0,0,0,107.913,3090.646Z" transform="translate(-79.368 -3058.894)" fill="none" stroke="#0b251c" stroke-linecap="round" stroke-linejoin="round" stroke-width="2"/></g></svg>