<svg xmlns="http://www.w3.org/2000/svg" width="43.236" height="43.236" viewBox="0 0 43.236 43.236"><g transform="translate(-706.187 -8.647)"><circle cx="21.618" cy="21.618" r="21.618" transform="translate(706.187 8.647)" fill="#b7eb38"/><path d="M919.366,3093.681h-8.128a1.02,1.02,0,0,1-.891-.631l-3.58-10.014c-.51-1.435.086-1.876,1.314-.994l3.372,2.413a.911.911,0,0,0,1.444-.441l1.522-4.055c.484-1.3,1.288-1.3,1.773,0l1.522,4.055a.9.9,0,0,0,1.435.441l3.165-2.257c1.349-.968,2-.476,1.444,1.09l-3.493,9.78A1.057,1.057,0,0,1,919.366,3093.681Z" transform="translate(-187.499 -3057.38)" fill="none" stroke="#0b251c" stroke-linecap="round" stroke-linejoin="round" stroke-width="2"/><path d="M911.167,3099h9.512" transform="translate(-188.119 -3060.088)" fill="none" stroke="#0b251c" stroke-linecap="round" stroke-linejoin="round" stroke-width="2"/><path d="M914.167,3091h4.324" transform="translate(-188.524 -3059.005)" fill="none" stroke="#0b251c" stroke-linecap="round" stroke-linejoin="round" stroke-width="2"/></g></svg>