<svg xmlns="http://www.w3.org/2000/svg" width="43.236" height="43.236" viewBox="0 0 43.236 43.236"><g transform="translate(-357.416 -8.647)"><circle cx="21.618" cy="21.618" r="21.618" transform="translate(357.416 8.647)" fill="#b7eb38"/><path d="M503,3085.053v-1.729a4.085,4.085,0,0,1,4.324-4.324h8.647a4.085,4.085,0,0,1,4.324,4.324v1.729" transform="translate(-132.901 -3057.382)" fill="none" stroke="#0b251c" stroke-linecap="round" stroke-linejoin="round" stroke-miterlimit="10" stroke-width="2"/><path d="M503,3092v1.729a4.085,4.085,0,0,0,4.324,4.324h8.647a4.085,4.085,0,0,0,4.324-4.324V3092" transform="translate(-132.901 -3059.141)" fill="none" stroke="#0b251c" stroke-linecap="round" stroke-linejoin="round" stroke-miterlimit="10" stroke-width="2"/><path d="M507.7,3086.26l4.583,2.655,4.548-2.637" transform="translate(-133.537 -3058.364)" fill="none" stroke="#0b251c" stroke-linecap="round" stroke-linejoin="round" stroke-width="2"/><path d="M513,3094.033v-4.713" transform="translate(-134.254 -3058.777)" fill="none" stroke="#0b251c" stroke-linecap="round" stroke-linejoin="round" stroke-width="2"/><path d="M511.149,3083.25l-2.767,1.539a2.459,2.459,0,0,0-1.141,1.937v2.931a2.437,2.437,0,0,0,1.141,1.937l2.767,1.539a2.473,2.473,0,0,0,2.153,0l2.767-1.539a2.46,2.46,0,0,0,1.141-1.937v-2.931a2.437,2.437,0,0,0-1.141-1.937l-2.767-1.539A2.416,2.416,0,0,0,511.149,3083.25Z" transform="translate(-133.475 -3057.923)" fill="none" stroke="#0b251c" stroke-linecap="round" stroke-linejoin="round" stroke-width="2"/></g></svg>