<svg xmlns="http://www.w3.org/2000/svg" width="38.053" height="18.115" viewBox="0 0 38.053 18.115">
  <g id="_9042522_gym_icon" data-name="9042522_gym_icon" transform="translate(-0.25 -6.25)">
    <path id="Path_464" data-name="Path 464" d="M9.649,7H5A1,1,0,0,0,4,8V22.618a1,1,0,0,0,1,1H9.649a1,1,0,0,0,1-1V8A1,1,0,0,0,9.649,7Z" transform="translate(1.985 0)" fill="none" stroke="#afea30" stroke-linecap="round" stroke-linejoin="round" stroke-width="1.5"/>
    <path id="Path_465" data-name="Path 465" d="M21.649,7H17a1,1,0,0,0-1,1V22.618a1,1,0,0,0,1,1h4.652a1,1,0,0,0,1-1V8A1,1,0,0,0,21.649,7Z" transform="translate(9.923 0)" fill="none" stroke="#afea30" stroke-linecap="round" stroke-linejoin="round" stroke-width="1.5"/>
    <path id="Path_466" data-name="Path 466" d="M1,17.972V10A1,1,0,0,1,2,9H4.988a1,1,0,0,1,1,1v7.975a1,1,0,0,1-1,1H2A1,1,0,0,1,1,17.972Z" transform="translate(0 1.323)" fill="none" stroke="#afea30" stroke-linecap="round" stroke-linejoin="round" stroke-width="1.5"/>
    <path id="Path_467" data-name="Path 467" d="M24.985,17.972V10a1,1,0,0,0-1-1H21a1,1,0,0,0-1,1v7.975a1,1,0,0,0,1,1h2.991A1,1,0,0,0,24.985,17.972Z" transform="translate(12.569 1.323)" fill="none" stroke="#afea30" stroke-linecap="round" stroke-linejoin="round" stroke-width="1.5"/>
    <path id="Path_468" data-name="Path 468" d="M8,12H21.292" transform="translate(4.631 3.308)" fill="none" stroke="#afea30" stroke-linecap="round" stroke-linejoin="round" stroke-width="1.5"/>
  </g>
</svg>
