<svg xmlns="http://www.w3.org/2000/svg" width="42.543" height="35.365" viewBox="0 0 42.543 35.365">
  <path id="seats-at-the-hall-svgrepo-com" d="M34.417,51.615A.416.416,0,0,1,34,51.2V49.341H21.188V51.2a.416.416,0,0,1-.832,0V49.341H7.617V51.2a.416.416,0,0,1-.832,0V41.226a.416.416,0,0,1,.832,0v7.282H20.355V41.226a.416.416,0,0,1,.832,0v7.282H34V41.226a.416.416,0,0,1,.832,0V51.2A.416.416,0,0,1,34.417,51.615Zm-2.071-4.653H22.733a1.316,1.316,0,0,1-1.314-1.314v-.277a1.316,1.316,0,0,1,.763-1.193V37.395A5.324,5.324,0,0,1,23,34.554H18.559a5.326,5.326,0,0,1,.817,2.84v6.783a1.316,1.316,0,0,1,.763,1.193v.277a1.316,1.316,0,0,1-1.314,1.314H9.212A1.316,1.316,0,0,1,7.9,45.648v-.277a1.316,1.316,0,0,1,.763-1.193V37.395a5.324,5.324,0,0,1,.817-2.84H.832v1.858a.416.416,0,0,1-.832,0V26.44a.416.416,0,0,1,.832,0v7.282h9.289a5.346,5.346,0,0,1,3.449-1.666V26.44a.416.416,0,0,1,.832,0v5.611a5.345,5.345,0,0,1,3.513,1.671h5.727a5.346,5.346,0,0,1,3.5-1.67V26.44a.416.416,0,0,1,.832,0v5.615a5.344,5.344,0,0,1,3.463,1.667h9.274V26.44a.416.416,0,1,1,.832,0v9.973a.416.416,0,1,1-.832,0V34.554H32.08a5.326,5.326,0,0,1,.817,2.84v6.783a1.316,1.316,0,0,1,.763,1.193v.277A1.316,1.316,0,0,1,32.346,46.962Zm-9.613-2.074a.482.482,0,0,0-.482.482v.277a.482.482,0,0,0,.482.482h9.613a.482.482,0,0,0,.482-.482V45.37a.482.482,0,0,0-.482-.482Zm-13.521,0a.482.482,0,0,0-.482.482v.277a.482.482,0,0,0,.482.482h9.613a.482.482,0,0,0,.482-.482V45.37a.482.482,0,0,0-.482-.482Zm13.8-.88h9.051V37.395a4.525,4.525,0,1,0-9.051,0Zm-13.521,0h9.051V37.395a4.525,4.525,0,0,0-9.051,0ZM39.082,32.175H29.469a1.316,1.316,0,0,1-1.314-1.314v-.277a1.316,1.316,0,0,1,.763-1.193V22.608a5.358,5.358,0,1,1,10.715,0v6.783a1.316,1.316,0,0,1,.763,1.193v.277A1.316,1.316,0,0,1,39.082,32.175ZM29.469,30.1a.482.482,0,0,0-.482.482v.277a.482.482,0,0,0,.482.482h9.613a.482.482,0,0,0,.482-.482v-.277a.482.482,0,0,0-.482-.482Zm.281-.88H38.8V22.608a4.525,4.525,0,1,0-9.051,0Zm-4.189,2.954H15.948a1.316,1.316,0,0,1-1.314-1.314v-.277a1.316,1.316,0,0,1,.763-1.193V22.608a5.358,5.358,0,1,1,10.715,0v6.783a1.316,1.316,0,0,1,.763,1.193v.277A1.316,1.316,0,0,1,25.561,32.175ZM15.948,30.1a.482.482,0,0,0-.482.482v.277a.482.482,0,0,0,.482.482H25.56a.482.482,0,0,0,.482-.482v-.277a.482.482,0,0,0-.482-.482Zm.281-.88H25.28V22.608a4.525,4.525,0,1,0-9.051,0Zm-4.19,2.954H2.427a1.316,1.316,0,0,1-1.314-1.314v-.277a1.316,1.316,0,0,1,.763-1.193V22.608a5.358,5.358,0,1,1,10.715,0v6.783a1.316,1.316,0,0,1,.763,1.193v.277A1.316,1.316,0,0,1,12.039,32.175ZM2.427,30.1a.482.482,0,0,0-.482.482v.277a.482.482,0,0,0,.482.482h9.613a.483.483,0,0,0,.482-.482v-.277a.483.483,0,0,0-.482-.482Zm.281-.88h9.051V22.608a4.525,4.525,0,1,0-9.051,0Z" transform="translate(0.5 -16.75)" fill="#afea30" stroke="#afea30" stroke-width="1"/>
</svg>
