<svg xmlns="http://www.w3.org/2000/svg" width="30.011" height="32.906" viewBox="0 0 30.011 32.906">
  <path id="hockey-sticks-svgrepo-com" d="M43.642,28.1H38.868a.616.616,0,0,1-.53-.307L33.772,20.23,44.623,1.858a.619.619,0,0,0-.218-.847L42.839.086A.618.618,0,0,0,41.992.3L31.978,17.259l-.39-.646a.619.619,0,0,0-.246-.23l-1.2-.618L21.19.528a.618.618,0,0,0-.847-.22L18.6,1.335a.619.619,0,0,0-.22.846l8.963,15.25.023,1.321a.619.619,0,0,0,.088.308l1.747,2.9-3.028,5.126a2.588,2.588,0,0,1-2.219,1.267H16.508a1.3,1.3,0,0,0-1.3,1.3v1.923a1.3,1.3,0,0,0,1.3,1.3h7.866a3.4,3.4,0,0,0,2.915-1.665l3.7-6.269,4.052,6.731a2.518,2.518,0,0,0,2.162,1.236h6.436a1.582,1.582,0,0,0,1.58-1.58V29.68A1.582,1.582,0,0,0,43.642,28.1ZM37.549,11.4l-.4.684-.468-.351.4-.684Zm.165-1.423.424-.717.468.351-.424.717Zm5.028-8.515.5.3-4,6.781-.468-.351Zm-6.7,11.342.468.351-3.466,5.869-.342-.566ZM19.759,2.088l.679-.4L28.72,15.781l-.651.446Zm-.323,27.505v2.042h-.856V29.593Zm-2.988,1.982V29.652a.06.06,0,0,1,.06-.059h.834v2.042h-.834A.06.06,0,0,1,16.448,31.575Zm9.776-1a2.157,2.157,0,0,1-1.85,1.057h-3.7V29.593h3.281a3.83,3.83,0,0,0,3.284-1.875l2.688-4.551.341.567Zm9.883.458L28.6,18.565l-.021-1.188.857-.586,1.184.611,6.657,11.025a1.855,1.855,0,0,0,1.592.91h2.683v2.331H37.206A1.279,1.279,0,0,1,36.107,31.036Zm7.878.289a.343.343,0,0,1-.343.343h-.854V29.337h.854a.343.343,0,0,1,.343.343Z" transform="translate(-15.211 0)" fill="#afea30"/>
</svg>
