<svg xmlns="http://www.w3.org/2000/svg" xmlns:xlink="http://www.w3.org/1999/xlink" width="338.351" height="259.336" viewBox="0 0 338.351 259.336">
  <defs>
    <linearGradient id="linear-gradient" x1="0.703" y1="1" x2="0.418" y2="0.231" gradientUnits="objectBoundingBox">
      <stop offset="0" stop-color="#96c813"/>
      <stop offset="1" stop-color="#46dbff"/>
    </linearGradient>
    <linearGradient id="linear-gradient-3" x1="0.033" y1="-0.062" x2="1.021" y2="0.494" gradientUnits="objectBoundingBox">
      <stop offset="0" stop-color="#b4b4b4"/>
      <stop offset="1" stop-color="#fff"/>
    </linearGradient>
  </defs>
  <g id="layer1" transform="translate(-71.101 59.656)">
    <g id="g1406" transform="translate(77.187 -54.281)">
      <g id="g3638" transform="translate(68.819 71.795)">
        <rect id="rect1316" width="204.219" height="121.989" transform="translate(30.264 13.119) rotate(8.229)" fill="none" stroke="rgba(0,0,0,0.35)" stroke-linecap="round" stroke-linejoin="round" stroke-dashoffset="5.4" stroke-width="15.875"/>
        <rect id="rect2172" width="206.011" height="124.829" transform="translate(21.939 2.398) rotate(8.229)" stroke="#fff" stroke-linecap="round" stroke-linejoin="round" stroke-dashoffset="5.4" stroke-width="16.362" fill="url(#linear-gradient)"/>
        <g id="g4275" transform="translate(23.762 22.92)">
          <path id="path1082" d="M315.142,113.066c-10.215-.481-19.48,4.7-20.7,11.549-.835,4.7,2.52,8.845,7.9,11.22a68.575,68.575,0,0,0-9.031,1.577,21.928,21.928,0,0,0-10.576-3.245c-10.215-.481-19.48,4.7-20.7,11.549-.837,4.711,2.49,8.894,7.893,11.266-7.851.849-15.16,2.626-19.825,5.677-10.311,9.165-8.441,16.851-8.839,18.206.645.763,5.068,3.783,8.776,3.719a37.524,37.524,0,0,1,1.291-5.014c.416-1.636.5-2.48,1.022-4.142,1.1-3.25,2.111-5.767,2.111-5.767a35.218,35.218,0,0,0-2.111,5.767c-.436,1.288-.636,2.711-1.022,4.142a35.618,35.618,0,0,0-1.178,5.019c-.036,0-.077-.006-.113-.005,0,.029-.013.063-.016.092-.564,5.441.464,18.054,1.685,19.168,11.666,1.994,23.249,2.391,35.585,2.188,1.933-.032,3.732.1,5.713.036,0,0,1.08-3.629,1.4-4.683,1.749-3.21,3.4-7.066,3.281-10.74.306-1.018.274-.972.588-2.021.165-1.8.1-2.817.147-4.369.02,0,.028.047.048.049-.094,1.985-.2,4.32-.2,4.32a43.885,43.885,0,0,0,13.571-2.992c.152-.109.262-.527.415-.725,2.072.024,4.171.043,6.288.017.292,1.86.576,4.37.938,4.7a182.267,182.267,0,0,0,30.894,2.2c.328,4.382.851,8.267,1.512,8.871,11.532,1.971,23.006,2.4,35.18,2.216.519.022.78.012,1.313.015,1.635-.032,3.136.05,4.805-.006,0,0,1.071-3.542,1.379-4.544,1.733-3.159,3.323-6.995,3.272-10.693.327-1.088.333-1.032.669-2.157a70.464,70.464,0,0,0,.173-9.024,38.618,38.618,0,0,0-.278-6.484c-.027-.084.183,2.678.278,6.484.006,4.494-.173,9.024-.173,9.024a43.732,43.732,0,0,0,13.523-3.041c1.805-1.289,3.99-9.023-1.2-19.937-2.216-4.654-10.956-7.531-21.277-8.684,5.068-2.033,8.959-5.359,9.7-9.506.005-.031.011-.062.016-.092.211-.49.539-1.132.66-1.459a3.675,3.675,0,0,0-.915-.322c-.322-6-6.86-10.985-16.1-11.42-7.661-.361-14.759,2.451-18.361,6.771a10.323,10.323,0,0,0,2.246-4.6c.006-.031.011-.061.016-.092.207-.482.541-1.137.66-1.459a3.5,3.5,0,0,0-.915-.322c-.334-5.995-6.82-10.936-16.053-11.371-10.215-.481-19.472,4.655-20.688,11.5a8.469,8.469,0,0,0,1.534,6.171,62.892,62.892,0,0,0-9.582-1.755c4.36-1.746,7.574-4.513,8.9-7.914a13.194,13.194,0,0,0,.749-1.641l.008-.046c.217-.5.545-1.172.668-1.5a3.5,3.5,0,0,0-.915-.322C330.861,118.483,324.381,113.5,315.142,113.066Zm49.328,24.95a10.323,10.323,0,0,0-2.246,4.6c-.056.314.148.581.128.891-1.669-.312-3.388-.555-5.184-.756A18.31,18.31,0,0,0,364.47,138.016Z" transform="translate(-235.796 -107.764)" fill="rgba(0,0,0,0.5)" fill-rule="evenodd"/>
          <path id="path884" d="M345.519,177.38c.4-1.355-1.46-9.033,8.851-18.2,14.818-9.692,55.3-7.9,60.5,3.01s3.041,18.672,1.236,19.961a43.787,43.787,0,0,1-13.548,3.005s.837-11.381-.083-15.471a74.107,74.107,0,0,1,.082,15.475c-2.709,9.07-5.288,17.406-5.288,17.406-14.622.493-27.826.1-41.32-2.2-1.221-1.114-2.257-13.721-1.693-19.162.713-6.279,4.475-15.032,4.475-15.032-.525.292-4.329,12.01-4.3,14.955C350.694,181.252,346.17,178.15,345.519,177.38Z" transform="translate(-277.746 -123.788)" fill="#ff8a00" stroke="#000" stroke-linejoin="round" stroke-width="6.581" fill-rule="evenodd"/>
          <path id="path885" d="M417.165,129.055c-1.217,6.848-10.494,12.015-20.709,11.533s-17.518-6.429-16.3-13.277,10.494-12.014,20.709-11.533S418.382,122.207,417.165,129.055Z" transform="translate(-291.63 -108.855)" fill="#ff8a00" stroke="#000" stroke-linejoin="round" stroke-width="6.581" fill-rule="evenodd"/>
          <path id="path886" d="M400.848,117.075c-7.659-2.629-28.72,8.174-15.542,19.379C394.705,135.385,379.313,122.412,400.848,117.075Z" transform="translate(-292.05 -109.229)" fill="rgba(255,255,255,0.25)" fill-rule="evenodd"/>
          <path id="path887" d="M373.592,154.99c-.869-.192-13.187,1.042-18.364,5.788-3.9,1.631-8.823,10.018-8.615,16.984,1.578,1.284,4.634,3.394,5.61,2.986C358.807,172.137,343.6,162.2,373.592,154.99Z" transform="translate(-278.183 -124.639)" fill="rgba(255,255,255,0.25)" fill-rule="evenodd"/>
          <path id="path888" d="M364.566,179.151c-5.207,8.979-4.708,25.484-1.727,31.068,3.753,1.235,9.225,1.947,10.532,1.706C375.8,204.328,359.679,204.627,364.566,179.151Z" transform="translate(-283.82 -134.369)" fill="rgba(255,255,255,0.25)" fill-rule="evenodd"/>
          <path id="path889" d="M409.056,147.41c15.835-2.732,14.319-16.564,20.459-12.494C428.471,137.739,424.537,147.685,409.056,147.41Z" transform="translate(-303.313 -116.269)" fill="rgba(0,0,0,0.25)" fill-rule="evenodd"/>
          <path id="path890" d="M448.8,189.384s8.478-.962,9.076-2.294c2.9-5.156-.259-17.855-2.393-20.073C443.945,162.844,465.032,188.485,448.8,189.384Z" transform="translate(-319.307 -129.302)" fill="rgba(0,0,0,0.25)" fill-rule="evenodd"/>
          <path id="path891" d="M415.824,223.457s7.8.821,8.908-.337,7.092-11.46,5.491-16.677C423,200.358,430.177,223.982,415.824,223.457Z" transform="translate(-306.037 -144.949)" fill="rgba(0,0,0,0.24)" fill-rule="evenodd"/>
          <path id="path828" d="M399.8,195.942c.4-1.355-1.46-9.033,8.851-18.2,14.818-9.692,55.3-7.9,60.5,3.01s3.041,18.672,1.236,19.961a43.786,43.786,0,0,1-13.548,3.005s.837-11.381-.083-15.471a74.124,74.124,0,0,1,.082,15.475c-2.709,9.07-5.288,17.407-5.288,17.407-14.622.493-27.826.1-41.32-2.2-1.221-1.114-2.257-13.721-1.693-19.162.713-6.279,4.475-15.032,4.475-15.032-.525.292-4.329,12.01-4.3,14.955C404.974,199.814,400.451,196.712,399.8,195.942Z" transform="translate(-299.589 -131.258)" fill="#ff0010" stroke="#000" stroke-linejoin="round" stroke-width="6.581" fill-rule="evenodd"/>
          <path id="path827" d="M471.446,147.617c-1.217,6.848-10.495,12.014-20.71,11.533s-17.518-6.429-16.3-13.277,10.494-12.014,20.709-11.533S472.663,140.769,471.446,147.617Z" transform="translate(-313.473 -116.325)" fill="#ff0010" stroke="#000" stroke-linejoin="round" stroke-width="6.581" fill-rule="evenodd"/>
          <path id="path830" d="M455.128,135.637c-7.659-2.629-28.72,8.174-15.542,19.379C448.986,153.947,433.594,140.974,455.128,135.637Z" transform="translate(-313.893 -116.699)" fill="rgba(255,255,255,0.25)" fill-rule="evenodd"/>
          <path id="path831" d="M427.872,173.552c-.869-.192-13.187,1.042-18.364,5.788-3.9,1.631-8.823,10.018-8.615,16.984,1.578,1.284,4.634,3.394,5.609,2.986C413.088,190.7,397.879,180.759,427.872,173.552Z" transform="translate(-300.026 -132.109)" fill="rgba(255,255,255,0.25)" fill-rule="evenodd"/>
          <path id="path832" d="M418.847,197.713c-5.207,8.979-4.708,25.484-1.728,31.068,3.753,1.235,9.225,1.947,10.532,1.706C430.085,222.89,413.96,223.189,418.847,197.713Z" transform="translate(-305.663 -141.839)" fill="rgba(255,255,255,0.25)" fill-rule="evenodd"/>
          <path id="path833" d="M463.336,165.971c15.835-2.732,14.32-16.564,20.459-12.494C482.752,156.3,478.817,166.247,463.336,165.971Z" transform="translate(-325.156 -123.739)" fill="rgba(0,0,0,0.25)" fill-rule="evenodd"/>
          <path id="path834" d="M503.081,207.946s8.478-.962,9.076-2.294c2.9-5.156-.259-17.855-2.393-20.073C498.225,181.406,519.313,207.047,503.081,207.946Z" transform="translate(-341.15 -136.771)" fill="rgba(0,0,0,0.25)" fill-rule="evenodd"/>
          <path id="path835" d="M470.1,242.019s7.8.821,8.908-.337,7.092-11.461,5.491-16.677C477.278,218.919,484.458,242.544,470.1,242.019Z" transform="translate(-327.88 -152.418)" fill="rgba(0,0,0,0.24)" fill-rule="evenodd"/>
          <path id="path875" d="M286.353,165.848c.4-1.355-1.46-9.032,8.851-18.2,14.818-9.692,55.3-7.9,60.5,3.01s3.041,18.672,1.236,19.961a43.785,43.785,0,0,1-13.548,3s.837-11.381-.083-15.471a74.116,74.116,0,0,1,.082,15.475c-2.709,9.07-5.288,17.407-5.288,17.407-14.622.493-27.826.1-41.32-2.2-1.221-1.114-2.257-13.721-1.693-19.162.713-6.279,4.475-15.032,4.475-15.032-.525.292-4.329,12.01-4.3,14.955C291.528,169.719,287,166.618,286.353,165.848Z" transform="translate(-253.937 -119.148)" fill="#008500" stroke="#000" stroke-linejoin="round" stroke-width="6.581" fill-rule="evenodd"/>
          <path id="path876" d="M358,117.522c-1.217,6.848-10.494,12.014-20.709,11.533s-17.518-6.429-16.3-13.276,10.494-12.015,20.709-11.533S359.216,110.675,358,117.522Z" transform="translate(-267.821 -104.215)" fill="#008500" stroke="#000" stroke-linejoin="round" stroke-width="6.581" fill-rule="evenodd"/>
          <path id="path877" d="M341.682,105.543c-7.659-2.629-28.72,8.174-15.542,19.379C335.539,123.853,320.147,110.88,341.682,105.543Z" transform="translate(-268.242 -104.589)" fill="rgba(255,255,255,0.25)" fill-rule="evenodd"/>
          <path id="path878" d="M314.426,143.458c-.869-.192-13.187,1.042-18.364,5.788-3.9,1.631-8.823,10.018-8.615,16.984,1.578,1.284,4.634,3.394,5.609,2.986C299.642,160.6,284.433,150.665,314.426,143.458Z" transform="translate(-254.374 -119.999)" fill="rgba(255,255,255,0.25)" fill-rule="evenodd"/>
          <path id="path879" d="M305.4,167.619c-5.207,8.979-4.708,25.484-1.727,31.068,3.753,1.235,9.225,1.947,10.532,1.706C316.638,192.8,300.513,193.095,305.4,167.619Z" transform="translate(-260.012 -129.729)" fill="rgba(255,255,255,0.25)" fill-rule="evenodd"/>
          <path id="path880" d="M349.89,135.877c15.835-2.732,14.319-16.564,20.459-12.494C369.3,126.207,365.371,136.153,349.89,135.877Z" transform="translate(-279.505 -111.629)" fill="rgba(0,0,0,0.25)" fill-rule="evenodd"/>
          <path id="path881" d="M389.635,177.851s8.478-.962,9.076-2.294c2.9-5.156-.259-17.855-2.393-20.073C384.779,151.312,405.866,176.952,389.635,177.851Z" transform="translate(-295.498 -124.661)" fill="rgba(0,0,0,0.25)" fill-rule="evenodd"/>
          <path id="path882" d="M356.658,211.925s7.8.821,8.908-.337,7.092-11.461,5.491-16.677C363.832,188.825,371.011,212.45,356.658,211.925Z" transform="translate(-282.228 -140.308)" fill="rgba(0,0,0,0.24)" fill-rule="evenodd"/>
          <path id="path893" d="M232.109,201.171c.4-1.355-1.46-9.033,8.851-18.2,14.818-9.692,55.3-7.9,60.5,3.01s3.041,18.672,1.236,19.961a43.786,43.786,0,0,1-13.548,3.005s.837-11.381-.083-15.471a74.121,74.121,0,0,1,.082,15.475c-2.709,9.07-5.288,17.407-5.288,17.407-14.622.493-27.826.1-41.32-2.2-1.221-1.114-2.257-13.721-1.693-19.162.713-6.279,4.475-15.032,4.475-15.032-.525.292-4.329,12.01-4.3,14.955C237.284,205.043,232.76,201.941,232.109,201.171Z" transform="translate(-232.109 -133.362)" fill="#0083cc" stroke="#000" stroke-linejoin="round" stroke-width="6.581" fill-rule="evenodd"/>
          <path id="path894" d="M303.755,152.845c-1.217,6.847-10.494,12.014-20.71,11.533s-17.518-6.429-16.3-13.276,10.494-12.015,20.709-11.533S304.972,146,303.755,152.845Z" transform="translate(-245.993 -118.429)" fill="#0083cc" stroke="#000" stroke-linejoin="round" stroke-width="6.581" fill-rule="evenodd"/>
          <path id="path895" d="M287.438,140.866c-7.659-2.629-28.72,8.174-15.542,19.379C281.3,159.176,265.9,146.2,287.438,140.866Z" transform="translate(-246.414 -118.803)" fill="rgba(255,255,255,0.25)" fill-rule="evenodd"/>
          <path id="path896" d="M260.182,178.781c-.869-.192-13.187,1.042-18.364,5.788-3.9,1.631-8.823,10.018-8.615,16.984,1.578,1.284,4.634,3.394,5.609,2.986C245.4,195.928,230.189,185.988,260.182,178.781Z" transform="translate(-232.546 -134.213)" fill="rgba(255,255,255,0.25)" fill-rule="evenodd"/>
          <path id="path897" d="M251.156,202.942c-5.207,8.979-4.708,25.484-1.728,31.068,3.753,1.235,9.225,1.947,10.532,1.706C262.394,228.119,246.269,228.418,251.156,202.942Z" transform="translate(-238.184 -143.943)" fill="rgba(255,255,255,0.25)" fill-rule="evenodd"/>
          <path id="path898" d="M295.646,171.2c15.835-2.732,14.32-16.564,20.459-12.494C315.061,161.53,311.127,171.476,295.646,171.2Z" transform="translate(-257.677 -125.843)" fill="rgba(0,0,0,0.25)" fill-rule="evenodd"/>
          <path id="path899" d="M335.391,213.174s8.478-.962,9.076-2.294c2.9-5.156-.259-17.855-2.393-20.073C330.535,186.635,351.623,212.276,335.391,213.174Z" transform="translate(-273.67 -138.875)" fill="rgba(0,0,0,0.25)" fill-rule="evenodd"/>
          <path id="path900" d="M302.414,247.248s7.8.821,8.908-.336,7.092-11.461,5.491-16.677C309.588,224.148,316.767,247.773,302.414,247.248Z" transform="translate(-260.4 -154.522)" fill="rgba(0,0,0,0.24)" fill-rule="evenodd"/>
        </g>
        <rect id="rect2910" width="214.858" height="131.927" transform="translate(18.883) rotate(8.229)" fill="none" stroke="#000" stroke-linecap="round" stroke-linejoin="round" stroke-dashoffset="5.4" stroke-width="2.195"/>
      </g>
      <g id="g3679">
        <rect id="rect3681" width="217.816" height="114.376" transform="translate(19.756 95.815) rotate(-21.887)" fill="none" stroke="rgba(0,0,0,0.35)" stroke-linecap="round" stroke-linejoin="round" stroke-dashoffset="5.4" stroke-width="15.876"/>
        <rect id="rect3683" width="219.727" height="117.038" transform="translate(4.556 87.175) rotate(-21.887)" stroke="#fff" stroke-linecap="round" stroke-linejoin="round" stroke-dashoffset="5.4" stroke-width="16.362" fill="url(#linear-gradient)"/>
        <g id="g3685" transform="translate(60.396 94.322)">
          <path id="path3687" d="M224.158,110.491c-10.215,1.134-15.74,7.367-12.361,13.9,2.32,4.483,8.328,7.8,15.121,9.169a49.259,49.259,0,0,0-7.7,2.857,31.39,31.39,0,0,0-12.4-1.37c-10.215,1.134-15.74,7.367-12.361,13.9,2.325,4.492,8.332,7.852,15.144,9.213-7.039,2-12.937,4.776-15.425,8.324-3.888,10.082,3.04,16.912,3.556,18.228,1.132.607,7.427,2.719,10.976,2.087a39.677,39.677,0,0,1-2.086-4.843c-.686-1.58-1.168-2.374-1.767-3.994-1.1-3.18-1.793-5.667-1.793-5.667-.14.157.75,2.848,1.793,5.667.435,1.26,1.189,2.609,1.767,3.994a39.076,39.076,0,0,0,2.2,4.83c-.034.007-.079.006-.113.013.016.028.029.061.046.088,3.075,5.126,12.466,16.648,14.39,17.491a197.213,197.213,0,0,0,35.926-3.477c1.851-.328,3.684-.482,5.558-.85,0,0-1.369-3.528-1.757-4.554a21.9,21.9,0,0,0-3.971-10.453c-.381-.99-.381-.942-.776-1.962-1.036-1.69-1.78-2.624-2.766-4.069.02,0,.059.039.079.038,1.23,1.853,2.686,4.031,2.686,4.031,4.435-1.179,7.495-2.193,11.154-4.87.075-.124-.1-.528-.081-.736,2.023-.3,4.069-.6,6.1-.957,1.521,1.678,3.467,3.958,4.037,4.207a191.858,191.858,0,0,0,31.389-2.741c3.234,4.007,6.327,7.525,7.369,7.981a197.044,197.044,0,0,0,35.552-3.389c.517-.059.763-.109,1.282-.189,1.562-.282,3.071-.439,4.65-.749,0,0-1.32-3.446-1.689-4.422a22.333,22.333,0,0,0-3.948-10.409c-.407-1.058-.364-1.007-.787-2.1-2.141-3.492-4.082-6.035-5.838-8.384a60.257,60.257,0,0,0-4.585-5.962c-.082-.074,1.96,2.452,4.585,5.962,3,4.161,5.838,8.384,5.838,8.384,4.435-1.179,7.415-2.231,11.075-4.908.891-1.473-2.14-8.973-14.437-18.277-5.243-3.967-15.626-5.28-26.39-4.751,3.556-2.667,5.111-6.349,3.064-10.3l-.046-.088c-.121-.487-.232-1.132-.332-1.453a5.5,5.5,0,0,0-1.1-.157c-4.307-5.509-13.956-9.112-23.2-8.086-7.661.851-12.665,4.553-13.279,9.11a7.983,7.983,0,0,0-.883-4.6l-.046-.088c-.12-.478-.233-1.136-.332-1.453a5.242,5.242,0,0,0-1.1-.157c-4.314-5.5-13.885-9.073-23.118-8.048-10.215,1.134-15.763,7.323-12.384,13.852a15.438,15.438,0,0,0,5.594,5.478,77.7,77.7,0,0,0-10.45-.143c3.062-2.291,4.333-5.351,3.351-8.706a10.612,10.612,0,0,0-.367-1.635l-.023-.044c-.124-.5-.253-1.17-.355-1.5a5.241,5.241,0,0,0-1.1-.157C242.99,113.076,233.4,109.465,224.158,110.491Zm64.389,15.477a7.983,7.983,0,0,0,.883,4.6c.155.3.53.515.716.8-1.824-.031-3.651.01-5.525.1C286.694,129.916,288.257,128.119,288.547,125.968Z" transform="translate(-184.184 -106.276)" fill="rgba(0,0,0,0.5)" fill-rule="evenodd"/>
          <path id="path3689" d="M276.991,168.39c-.516-1.316-7.426-8.139-3.539-18.221,7.9-11.267,48.305-15.873,60.6-6.569s15.374,16.822,14.483,18.295c-3.66,2.677-6.688,3.7-11.123,4.878,0,0-6.764-10.669-10.378-14.315a112.425,112.425,0,0,1,10.379,14.318c3.413,8.819,6.464,16.938,6.464,16.938a205.346,205.346,0,0,1-41.492,4.349c-1.924-.843-11.319-12.358-14.394-17.484-3.489-5.925-5.671-14.613-5.671-14.613-.314.352,3.8,11.792,5.785,14.515C284.58,171.175,278.134,169,276.991,168.39Z" transform="translate(-216.085 -117.665)" fill="#ff8a00" stroke="#000" stroke-linejoin="round" stroke-width="6.581" fill-rule="evenodd"/>
          <path id="path3691" d="M311.015,115.038c3.379,6.53-2.169,12.75-12.384,13.884s-21.248-3.244-24.627-9.774,2.169-12.75,12.384-13.884S307.636,108.508,311.015,115.038Z" transform="translate(-216.384 -104.171)" fill="#ff8a00" stroke="#000" stroke-linejoin="round" stroke-width="6.581" fill-rule="evenodd"/>
          <path id="path3693" d="M287.1,106.872c-9.169-1.25-22.379,12.012-2.156,20.351C293.342,124.779,269.8,115.145,287.1,106.872Z" transform="translate(-216.91 -104.857)" fill="rgba(255,255,255,0.25)" fill-rule="evenodd"/>
          <path id="path3695" d="M288.669,145.269c-.969-.044-12.08,3-13.936,8.2-2.694,2.114-1.878,10.642,2.959,17.061,2.383.945,6.748,2.426,7.421,1.9C285.761,163.435,264.412,156.582,288.669,145.269Z" transform="translate(-216.463 -120.341)" fill="rgba(255,255,255,0.25)" fill-rule="evenodd"/>
          <path id="path3697" d="M291.384,171.427c.933,9.121,12.4,24.329,19.006,29.04,4.458.563,10.231.376,11.337-.049C319.027,193.006,303.606,195.776,291.384,171.427Z" transform="translate(-223.776 -130.867)" fill="rgba(255,255,255,0.25)" fill-rule="evenodd"/>
          <path id="path3699" d="M316.707,133.621c13.52-4.979,2.846-17.554,11.5-14.735C329.077,121.663,331.886,131.482,316.707,133.621Z" transform="translate(-233.967 -109.561)" fill="rgba(0,0,0,0.25)" fill-rule="evenodd"/>
          <path id="path3701" d="M379.638,167.778s7.572-2.2,7.264-3.529c-.62-5.224-12.135-16.5-15.678-18.219C357.27,143.951,394.763,164.435,379.638,167.778Z" transform="translate(-254.627 -120.588)" fill="rgba(0,0,0,0.25)" fill-rule="evenodd"/>
          <path id="path3703" d="M375.665,203.637s8.1-.446,8.405-1.689-.758-11.71-5.781-16.294C367.239,181.135,389.918,201.9,375.665,203.637Z" transform="translate(-257.479 -136.334)" fill="rgba(0,0,0,0.24)" fill-rule="evenodd"/>
          <path id="path3705" d="M341.924,177.185c-.516-1.316-7.426-8.139-3.538-18.221,7.9-11.267,48.3-15.873,60.6-6.569s15.374,16.822,14.483,18.295c-3.66,2.677-6.688,3.7-11.123,4.878,0,0-6.764-10.669-10.378-14.315a112.453,112.453,0,0,1,10.38,14.318c3.413,8.819,6.464,16.938,6.464,16.938a205.354,205.354,0,0,1-41.492,4.349C365.4,196.015,356,184.5,352.928,179.374c-3.489-5.925-5.671-14.613-5.671-14.613-.314.352,3.8,11.792,5.786,14.515C349.514,179.97,343.068,177.8,341.924,177.185Z" transform="translate(-242.215 -121.204)" fill="#ff0010" stroke="#000" stroke-linejoin="round" stroke-width="6.581" fill-rule="evenodd"/>
          <path id="path3707" d="M375.949,123.833c3.379,6.53-2.169,12.75-12.384,13.884s-21.248-3.245-24.627-9.774,2.169-12.75,12.384-13.884S372.57,117.3,375.949,123.833Z" transform="translate(-242.514 -107.71)" fill="#ff0010" stroke="#000" stroke-linejoin="round" stroke-width="6.581" fill-rule="evenodd"/>
          <path id="path3709" d="M352.039,115.667c-9.169-1.25-22.379,12.012-2.156,20.351C358.276,133.574,334.731,123.94,352.039,115.667Z" transform="translate(-243.039 -108.396)" fill="rgba(255,255,255,0.25)" fill-rule="evenodd"/>
          <path id="path3711" d="M353.6,154.064c-.97-.044-12.08,3-13.936,8.2-2.694,2.114-1.878,10.642,2.959,17.061,2.383.945,6.748,2.426,7.421,1.9C350.695,172.23,329.346,165.377,353.6,154.064Z" transform="translate(-242.593 -123.88)" fill="rgba(255,255,255,0.25)" fill-rule="evenodd"/>
          <path id="path3713" d="M356.318,180.222c.932,9.121,12.4,24.329,19.006,29.04,4.458.563,10.232.376,11.337-.049C383.961,201.8,368.54,204.571,356.318,180.222Z" transform="translate(-249.906 -134.406)" fill="rgba(255,255,255,0.25)" fill-rule="evenodd"/>
          <path id="path3715" d="M381.641,142.416c13.52-4.979,2.846-17.554,11.5-14.735C394.011,130.458,396.82,140.277,381.641,142.416Z" transform="translate(-260.096 -113.1)" fill="rgba(0,0,0,0.25)" fill-rule="evenodd"/>
          <path id="path3717" d="M444.572,176.573s7.572-2.2,7.264-3.529c-.62-5.224-12.135-16.5-15.678-18.219C422.2,152.746,459.7,173.23,444.572,176.573Z" transform="translate(-280.757 -124.127)" fill="rgba(0,0,0,0.25)" fill-rule="evenodd"/>
          <path id="path3719" d="M440.6,212.432s8.1-.446,8.405-1.689-.758-11.711-5.781-16.294C432.173,189.93,454.852,210.7,440.6,212.432Z" transform="translate(-283.608 -139.873)" fill="rgba(0,0,0,0.24)" fill-rule="evenodd"/>
          <path id="path3721" d="M212,166.861c-.516-1.316-7.426-8.139-3.539-18.221,7.9-11.267,48.305-15.873,60.6-6.569s15.374,16.822,14.483,18.295c-3.66,2.677-6.688,3.7-11.124,4.878,0,0-6.764-10.669-10.377-14.315a112.433,112.433,0,0,1,10.379,14.318c3.413,8.819,6.464,16.938,6.464,16.938a205.343,205.343,0,0,1-41.492,4.349c-1.924-.843-11.319-12.358-14.394-17.484-3.489-5.925-5.671-14.613-5.671-14.613-.314.352,3.8,11.792,5.785,14.515C219.593,169.646,213.147,167.473,212,166.861Z" transform="translate(-189.934 -117.049)" fill="#008500" stroke="#000" stroke-linejoin="round" stroke-width="6.581" fill-rule="evenodd"/>
          <path id="path3723" d="M246.028,113.508c3.379,6.53-2.169,12.75-12.384,13.884s-21.248-3.244-24.627-9.774,2.169-12.75,12.384-13.884S242.648,106.979,246.028,113.508Z" transform="translate(-190.233 -103.555)" fill="#008500" stroke="#000" stroke-linejoin="round" stroke-width="6.581" fill-rule="evenodd"/>
          <path id="path3725" d="M222.118,105.343c-9.169-1.25-22.38,12.012-2.156,20.351C228.355,123.25,204.81,113.616,222.118,105.343Z" transform="translate(-190.758 -104.242)" fill="rgba(255,255,255,0.25)" fill-rule="evenodd"/>
          <path id="path3727" d="M223.682,143.739c-.97-.044-12.08,3-13.936,8.2-2.694,2.114-1.878,10.642,2.959,17.061,2.383.945,6.747,2.426,7.421,1.9C220.774,161.906,199.425,155.052,223.682,143.739Z" transform="translate(-190.312 -119.725)" fill="rgba(255,255,255,0.25)" fill-rule="evenodd"/>
          <path id="path3729" d="M226.4,169.9c.933,9.12,12.4,24.329,19.006,29.04,4.458.563,10.232.376,11.337-.049C254.04,191.476,238.619,194.247,226.4,169.9Z" transform="translate(-197.625 -130.252)" fill="rgba(255,255,255,0.25)" fill-rule="evenodd"/>
          <path id="path3731" d="M251.72,132.092c13.52-4.979,2.846-17.554,11.5-14.735C264.09,120.133,266.9,129.953,251.72,132.092Z" transform="translate(-207.815 -108.945)" fill="rgba(0,0,0,0.25)" fill-rule="evenodd"/>
          <path id="path3733" d="M314.651,166.249s7.572-2.2,7.264-3.529c-.62-5.224-12.135-16.5-15.678-18.219C292.283,142.421,329.776,162.906,314.651,166.249Z" transform="translate(-228.476 -119.972)" fill="rgba(0,0,0,0.25)" fill-rule="evenodd"/>
          <path id="path3735" d="M310.678,202.108s8.1-.446,8.4-1.689-.758-11.711-5.781-16.294C302.252,179.605,324.931,200.374,310.678,202.108Z" transform="translate(-231.327 -135.718)" fill="rgba(0,0,0,0.24)" fill-rule="evenodd"/>
          <path id="path3737" d="M182.971,207.963c-.516-1.316-7.427-8.139-3.539-18.221,7.9-11.267,48.3-15.873,60.6-6.569s15.374,16.822,14.483,18.295c-3.66,2.677-6.688,3.7-11.123,4.878,0,0-6.764-10.669-10.378-14.315A112.437,112.437,0,0,1,243.4,206.349c3.413,8.819,6.464,16.938,6.464,16.938a205.353,205.353,0,0,1-41.492,4.349c-1.924-.843-11.319-12.358-14.394-17.484-3.489-5.925-5.671-14.613-5.671-14.613-.314.352,3.8,11.792,5.785,14.515C190.561,210.748,184.115,208.576,182.971,207.963Z" transform="translate(-178.251 -133.589)" fill="#0083cc" stroke="#000" stroke-linejoin="round" stroke-width="6.581" fill-rule="evenodd"/>
          <path id="path3739" d="M217,154.611c3.379,6.53-2.169,12.75-12.384,13.884s-21.248-3.244-24.627-9.774,2.169-12.75,12.384-13.884S213.616,148.081,217,154.611Z" transform="translate(-178.55 -120.095)" fill="#0083cc" stroke="#000" stroke-linejoin="round" stroke-width="6.581" fill-rule="evenodd"/>
          <path id="path3741" d="M193.085,146.446c-9.169-1.25-22.38,12.012-2.156,20.351C199.323,164.352,175.778,154.718,193.085,146.446Z" transform="translate(-179.076 -120.781)" fill="rgba(255,255,255,0.25)" fill-rule="evenodd"/>
          <path id="path3743" d="M194.649,184.842c-.969-.044-12.08,3-13.936,8.2-2.694,2.114-1.878,10.642,2.959,17.061,2.383.945,6.748,2.426,7.421,1.9C191.741,203.008,170.393,196.155,194.649,184.842Z" transform="translate(-178.629 -136.265)" fill="rgba(255,255,255,0.25)" fill-rule="evenodd"/>
          <path id="path3745" d="M197.364,211c.933,9.121,12.4,24.329,19.006,29.04,4.458.563,10.232.376,11.337-.049C225.007,232.579,209.587,235.349,197.364,211Z" transform="translate(-185.942 -146.792)" fill="rgba(255,255,255,0.25)" fill-rule="evenodd"/>
          <path id="path3747" d="M222.688,173.194c13.52-4.979,2.846-17.554,11.5-14.735C235.058,161.236,237.867,171.055,222.688,173.194Z" transform="translate(-196.133 -125.485)" fill="rgba(0,0,0,0.25)" fill-rule="evenodd"/>
          <path id="path3749" d="M285.619,207.351s7.572-2.2,7.264-3.528c-.62-5.224-12.135-16.5-15.679-18.219C263.251,183.523,300.743,204.008,285.619,207.351Z" transform="translate(-216.793 -136.512)" fill="rgba(0,0,0,0.25)" fill-rule="evenodd"/>
          <path id="path3751" d="M281.646,243.21s8.1-.446,8.405-1.689-.758-11.711-5.781-16.294C273.22,220.708,295.9,241.476,281.646,243.21Z" transform="translate(-219.645 -152.258)" fill="rgba(0,0,0,0.24)" fill-rule="evenodd"/>
        </g>
        <rect id="rect3753" width="229.163" height="123.693" transform="translate(0 85.426) rotate(-21.887)" fill="none" stroke="#000" stroke-linecap="round" stroke-linejoin="round" stroke-dashoffset="5.4" stroke-width="2.195"/>
      </g>
      <g id="g5290" transform="translate(99.905 118.424)">
        <rect id="rect1306" width="224.9" height="117.226" rx="58.573" transform="translate(0 10.849)" stroke="#000" stroke-linecap="round" stroke-linejoin="round" stroke-dashoffset="5.4" stroke-width="14.921" fill="url(#linear-gradient-3)"/>
        <path id="path3774" d="M312.367,250.278c0,19.372-20.641,35.075-46.1,35.075s-46.1-15.7-46.1-35.075S240.8,215.2,266.263,215.2s46.1,15.7,46.1,35.075Z" transform="translate(-122.453 -171.823)" fill="rgba(58,58,58,0.35)" stroke="rgba(0,0,0,0.31)" stroke-linecap="round" stroke-linejoin="round" stroke-dashoffset="5.4" stroke-width="14.921"/>
        <path id="path1308" d="M312.367,250.278c0,19.372-20.641,35.075-46.1,35.075s-46.1-15.7-46.1-35.075S240.8,215.2,266.263,215.2s46.1,15.7,46.1,35.075Z" transform="translate(-126.826 -175.739)" fill="#7a7a7a" stroke="#000" stroke-linecap="round" stroke-linejoin="round" stroke-dashoffset="5.4" stroke-width="5.967"/>
        <path id="path1310" d="M366.6,324.08c0,13.356-13.632,24.184-30.448,24.184S305.7,337.436,305.7,324.08,319.333,299.9,336.149,299.9,366.6,310.723,366.6,324.08Z" transform="translate(-197.274 -249.078)" stroke="#000" stroke-linecap="round" stroke-linejoin="round" stroke-dashoffset="5.4" stroke-width="17.68"/>
        <rect id="rect1312" width="37.109" height="5.787" rx="2.894" transform="translate(21.046)" fill="none" stroke="#000" stroke-linecap="round" stroke-linejoin="round" stroke-dashoffset="5.4" stroke-width="10.785"/>
        <rect id="rect3767" width="53.71" height="17.972" rx="8.986" transform="translate(22.828 27.224)" fill="none" stroke="rgba(0,0,0,0.53)" stroke-linecap="round" stroke-linejoin="round" stroke-dashoffset="5.4" stroke-width="13.453"/>
        <rect id="rect1314" width="58.474" height="20.307" rx="10.153" transform="translate(16.868 23.772)" fill="#fff" stroke="#000" stroke-linecap="round" stroke-linejoin="round" stroke-dashoffset="5.4" stroke-width="5.967"/>
        <path id="rect3771" d="M252.808,294.962,254,299.531c-22.349-16.317-62.183,12.186-66-1.142C180.912,273.608,240.885,249.291,252.808,294.962Z" transform="translate(-80.527 -220.838)" fill="rgba(255,255,255,0.35)"/>
      </g>
    </g>
  </g>
</svg>
