<svg xmlns="http://www.w3.org/2000/svg" width="27.622" height="27.553" viewBox="0 0 27.622 27.553">
  <g id="_1370027_bank_safe_lockers_protected_protection_safe_icon" data-name="1370027_bank safe_lockers_protected_protection_safe_icon" transform="translate(0.1 -0.1)">
    <g id="Group_533" data-name="Group 533" transform="translate(-0.1 0.1)">
      <path id="Path_490" data-name="Path 490" d="M26.832,7.972a.692.692,0,0,0-.691.691V20.057a1.563,1.563,0,0,1-1.588,1.588H2.869a1.563,1.563,0,0,1-1.588-1.588v-.9H3.905a.692.692,0,0,0,.691-.691.743.743,0,0,0-.691-.691H1.281V12.254H3.905a.692.692,0,0,0,.691-.691.743.743,0,0,0-.691-.691H1.281V5.348H3.905A.692.692,0,0,0,4.6,4.658a.743.743,0,0,0-.691-.691H1.281v-.9A1.563,1.563,0,0,1,2.869,1.481H24.553a1.563,1.563,0,0,1,1.588,1.588.691.691,0,0,0,1.381,0A2.947,2.947,0,0,0,24.553.1H2.869A2.947,2.947,0,0,0-.1,3.069V20.057a2.947,2.947,0,0,0,2.969,2.969H3.56v2.555a2.078,2.078,0,0,0,2.072,2.072H8.187a2.078,2.078,0,0,0,2.072-2.072V23.027h6.906v2.555a2.078,2.078,0,0,0,2.072,2.072h2.555a2.078,2.078,0,0,0,2.072-2.072V23.027h.691a2.947,2.947,0,0,0,2.969-2.969V8.663A.743.743,0,0,0,26.832,7.972ZM8.877,25.582a.692.692,0,0,1-.691.691H5.632a.692.692,0,0,1-.691-.691V23.027H8.877Zm13.6,0a.692.692,0,0,1-.691.691H19.236a.692.692,0,0,1-.691-.691V23.027h3.936Z" transform="translate(0.1 -0.1)" fill="#afea30"/>
    </g>
    <g id="Group_534" data-name="Group 534" transform="translate(8.877 6.729)">
      <path id="Path_491" data-name="Path 491" d="M17.734,19.368a4.834,4.834,0,0,1,0-9.668.691.691,0,1,1,0,1.381,3.453,3.453,0,1,0,3.453,3.453.691.691,0,0,1,1.381,0A4.848,4.848,0,0,1,17.734,19.368Z" transform="translate(-12.9 -9.7)" fill="#afea30"/>
    </g>
    <g id="Group_535" data-name="Group 535" transform="translate(13.021 7.972)">
      <path id="Path_492" data-name="Path 492" d="M19.591,15.781a.627.627,0,0,1-.483-.207.668.668,0,0,1,0-.967l2.9-2.9a.684.684,0,1,1,.967.967l-2.9,2.9A.746.746,0,0,1,19.591,15.781Z" transform="translate(-18.9 -11.5)" fill="#afea30"/>
    </g>
  </g>
</svg>
