<svg xmlns="http://www.w3.org/2000/svg" width="39.498" height="39.498" viewBox="0 0 39.498 39.498">
  <g id="Page-1" transform="translate(21.193 -7.778) rotate(45)">
    <g id="icon-19-tennis-racket" transform="translate(10 1)">
      <path id="tennis-racket" d="M13.9,6.2h1.3V4.9H14.151q-.129.173-.254.356V6.2Zm0,2.6h1.3V7.5H13.9v1.3Zm-1.3,0h-.393q.181-.556.393-1.079V8.794Zm1.3,2.6h1.3v-1.3H13.9v1.3Zm-1.3,0H11.571q.112-.663.267-1.3H12.6v1.3Zm1.3,6.5h1.3v1.3H13.9v-1.3Zm-1.3,0h-.755a6.015,6.015,0,0,0,.755,1.388h0V17.888Zm1.3-2.6h1.3v1.3H13.9v-1.3Zm-1.3,0H11.317a9.663,9.663,0,0,0,.157,1.3H12.6v-1.3Zm1.3-2.6h1.3v1.3H13.9v-1.3Zm-1.3,0H11.4q-.064.642-.087,1.3H12.6v-1.3Zm3.9-6.5h1.3V4.9H16.5V6.2Zm0-3.4a4.4,4.4,0,0,1,1.3-.442h0V3.6H16.5V2.8Zm0,6h1.3V7.5H16.5v1.3Zm0,2.6h1.3v-1.3H16.5v1.3Zm0,6.5h1.3v1.3H16.5v-1.3Zm-1.3,3.342a6.181,6.181,0,0,1-1.378-.743H15.2v.743Zm1.3.374a9.588,9.588,0,0,0,1.3.163v-1.28H16.5V21.6Zm0-6.314h1.3v1.3H16.5v-1.3Zm0-2.6h1.3v1.3H16.5v-1.3Zm5.2-7.794V6.2h1.3V5.253q-.125-.183-.254-.356Zm-2.6,0V6.2h1.3V4.9Zm0-1.3V2.353a4.4,4.4,0,0,1,1.3.442v.8Zm2.6,3.9v1.3h1.3V7.5Zm-2.6,0v1.3h1.3V7.5Zm2.6,2.6v1.3h1.3v-1.3Zm3.359,0q.154.636.267,1.3H24.29v-1.3Zm-.368-1.3q-.181-.556-.393-1.079V8.794Zm-5.589,1.3v1.3h1.3v-1.3Zm2.6,9.093v-1.3h1.3v1.3Zm0,1.3v.743h0a6.181,6.181,0,0,0,1.378-.743H21.691Zm-2.6-1.3v-1.3h1.3v1.3Zm0,1.3v1.28h0a9.588,9.588,0,0,0,1.3-.163h0V20.486Zm2.6-3.9v-1.3h1.3v1.3Zm3.722,0a9.664,9.664,0,0,0,.157-1.3H24.29v1.3Zm-.37,1.3a6.015,6.015,0,0,1-.755,1.388h0V17.888Zm-5.951-1.3v-1.3h1.3v1.3Zm2.6-2.6v-1.3h1.3v1.3Zm3.886,0q-.022-.656-.087-1.3h-1.2v1.3Zm-6.484,0v-1.3h1.3v1.3Zm7.779,1.3c-.248,5.343-3.586,7.574-7.779,7.779v6.621a1.95,1.95,0,0,1,1.3,1.845v6.483a1.949,1.949,0,1,1-3.9,0V31.534a1.949,1.949,0,0,1,1.3-1.844h0V23.068h0c-4.194-.2-7.531-2.436-7.779-7.779H10v-1.3h.01C10.223,6.881,13.918,1,18.444,1s8.221,5.881,8.434,12.99h.01v1.3Z" transform="translate(-10 -1)" fill="#afea30" fill-rule="evenodd"/>
    </g>
  </g>
</svg>
