<svg id="_9024515_dog_light_icon" data-name="9024515_dog_light_icon" xmlns="http://www.w3.org/2000/svg" width="31" height="31" viewBox="0 0 31 31">
  <rect id="Rectangle_3014" data-name="Rectangle 3014" width="31" height="31" fill="none"/>
  <line id="Line_46" data-name="Line 46" y2="3" transform="translate(15 23)" fill="none" stroke="#afea30" stroke-linecap="round" stroke-linejoin="round" stroke-width="2"/>
  <ellipse id="Ellipse_223" data-name="Ellipse 223" cx="1.5" cy="1" rx="1.5" ry="1" transform="translate(10 16)" fill="#afea30"/>
  <circle id="Ellipse_224" data-name="Ellipse 224" cx="1" cy="1" r="1" transform="translate(19 16)" fill="#afea30"/>
  <path id="Path_517" data-name="Path 517" d="M115.877,176l-1.939,1.939L112,176" transform="translate(-98.43 -154.676)" fill="none" stroke="#afea30" stroke-linecap="round" stroke-linejoin="round" stroke-width="2"/>
  <path id="Path_518" data-name="Path 518" d="M152,35.571l6.761-1.684a.969.969,0,0,1,1.187.751l1.987,10.614a.972.972,0,0,1-1.72.775Z" transform="translate(-133.583 -29.756)" fill="none" stroke="#afea30" stroke-linecap="round" stroke-linejoin="round" stroke-width="2"/>
  <path id="Path_519" data-name="Path 519" d="M31.808,35.571l-6.761-1.684a.969.969,0,0,0-1.187.751L21.872,45.252a.972.972,0,0,0,1.72.775Z" transform="translate(-19.207 -29.756)" fill="none" stroke="#afea30" stroke-linecap="round" stroke-linejoin="round" stroke-width="2"/>
  <line id="Line_47" data-name="Line 47" x2="6" transform="translate(13 6)" fill="none" stroke="#afea30" stroke-linecap="round" stroke-linejoin="round" stroke-width="2"/>
  <path id="Path_520" data-name="Path 520" d="M67.386,119.3v7.839a3.877,3.877,0,0,1-3.877,3.877H51.877A3.877,3.877,0,0,1,48,127.139V119.3" transform="translate(-42.184 -104.845)" fill="none" stroke="#afea30" stroke-linecap="round" stroke-linejoin="round" stroke-width="2"/>
</svg>
