<svg xmlns="http://www.w3.org/2000/svg" width="30.144" height="30.144" viewBox="0 0 30.144 30.144">
  <g id="Layer_2" data-name="Layer 2" transform="translate(-2 -2)">
    <path id="Path_476" data-name="Path 476" d="M17.072,2A15.072,15.072,0,1,0,32.144,17.072,15.072,15.072,0,0,0,17.072,2Zm0,27.129A12.057,12.057,0,1,1,29.129,17.072,12.057,12.057,0,0,1,17.072,29.129Z" fill="#afea30"/>
    <rect id="Rectangle_2998" data-name="Rectangle 2998" width="3" height="3" transform="translate(19 8.144)" fill="#afea30"/>
    <rect id="Rectangle_2999" data-name="Rectangle 2999" width="3" height="3" transform="translate(13 8.144)" fill="#afea30"/>
    <rect id="Rectangle_3000" data-name="Rectangle 3000" width="3" height="3" transform="translate(19 23.144)" fill="#afea30"/>
    <rect id="Rectangle_3001" data-name="Rectangle 3001" width="3" height="3" transform="translate(13 23.144)" fill="#afea30"/>
    <rect id="Rectangle_3002" data-name="Rectangle 3002" width="3" height="3" transform="translate(16 15.144)" fill="#afea30"/>
    <rect id="Rectangle_3003" data-name="Rectangle 3003" width="3" height="3" transform="translate(10 12.144)" fill="#afea30"/>
    <rect id="Rectangle_3004" data-name="Rectangle 3004" width="3" height="3" transform="translate(22 12.144)" fill="#afea30"/>
    <rect id="Rectangle_3005" data-name="Rectangle 3005" width="3" height="3" transform="translate(10 18.144)" fill="#afea30"/>
    <rect id="Rectangle_3006" data-name="Rectangle 3006" width="3" height="3" transform="translate(22 18.144)" fill="#afea30"/>
  </g>
</svg>
