<svg xmlns="http://www.w3.org/2000/svg" width="43.445" height="27.891" viewBox="0 0 43.445 27.891">
  <g id="_3818479_basket_ground_sport_icon" data-name="3818479_basket_ground_sport_icon" transform="translate(-7.25 -51.32)">
    <rect id="Rectangle_157" data-name="Rectangle 157" width="41.888" height="26.391" transform="translate(8 52.07)" fill="none" stroke="#afea30" stroke-miterlimit="10" stroke-width="1.5"/>
    <line id="Line_42" data-name="Line 42" y2="26" transform="translate(29 52)" fill="none" stroke="#afea30" stroke-miterlimit="10" stroke-width="1.5"/>
    <ellipse id="Ellipse_88" data-name="Ellipse 88" cx="4" cy="3.5" rx="4" ry="3.5" transform="translate(25 62)" fill="none" stroke="#afea30" stroke-miterlimit="10" stroke-width="1.5"/>
    <path id="Path_454" data-name="Path 454" d="M8,79.75h4.028a8.421,8.421,0,0,1,8.421,8.421h0a8.421,8.421,0,0,1-8.421,8.421H8Z" transform="translate(0 -22.907)" fill="none" stroke="#afea30" stroke-miterlimit="10" stroke-width="1.5"/>
    <circle id="Ellipse_89" data-name="Ellipse 89" cx="2.274" cy="2.274" r="2.274" transform="translate(13.226 62.99)" fill="none" stroke="#afea30" stroke-miterlimit="10" stroke-width="1.5"/>
    <path id="Path_455" data-name="Path 455" d="M8,109.9l7.5-2.578v-4.548L8,100.2Z" transform="translate(0 -39.788)" fill="none" stroke="#afea30" stroke-miterlimit="10" stroke-width="1.5"/>
    <path id="Path_456" data-name="Path 456" d="M0,0H4.028a8.421,8.421,0,0,1,8.421,8.421h0a8.421,8.421,0,0,1-8.421,8.421H0Z" transform="translate(49.945 73.686) rotate(180)" fill="none" stroke="#afea30" stroke-miterlimit="10" stroke-width="1.5"/>
    <circle id="Ellipse_90" data-name="Ellipse 90" cx="2.274" cy="2.274" r="2.274" transform="translate(40.172 62.99)" fill="none" stroke="#afea30" stroke-miterlimit="10" stroke-width="1.5"/>
    <path id="Path_457" data-name="Path 457" d="M212.86,109.9l-7.5-2.578v-4.548l7.5-2.578Z" transform="translate(-162.914 -39.788)" fill="none" stroke="#afea30" stroke-miterlimit="10" stroke-width="1.5"/>
  </g>
</svg>
