<svg xmlns="http://www.w3.org/2000/svg" width="30.633" height="30.78" viewBox="0 0 30.633 30.78">
  <g id="tennis-ball-and-raquet-svgrepo-com" transform="translate(31.235 0) rotate(90)">
    <g id="Group_528" data-name="Group 528" transform="translate(0 0.602)">
      <path id="Path_477" data-name="Path 477" d="M33.7,19.322c2.079-5.167-.036-12.091-3.47-15.525A11,11,0,0,0,22.384.6a12.328,12.328,0,0,0-8.751,3.69C8.922,9,8.7,16.447,13.138,20.885A16.208,16.208,0,0,0,24.12,25.176a12.126,12.126,0,0,0,4.544-.821l4.952,4.952a2.976,2.976,0,0,0,4.207,0l.825-.826a2.978,2.978,0,0,0,0-4.208Zm-5.213,3.205a10.072,10.072,0,0,1-4.363.9,14.59,14.59,0,0,1-9.747-3.779c-3.757-3.757-3.535-10.093.5-14.124a10.741,10.741,0,0,1,7.517-3.178,9.26,9.26,0,0,1,6.607,2.683c3.076,3.076,5.014,9.628,2.878,14.11L31.6,19.7l.982.982-2.564,2.564-.981-.981Zm8.93,4.719-.825.826a1.259,1.259,0,0,1-1.738,0l-3.594-3.594,2.563-2.564,3.594,3.594A1.232,1.232,0,0,1,37.413,27.246Z" transform="translate(-8.738 -0.602)" fill="#afea30"/>
      <path id="Path_478" data-name="Path 478" d="M4.552,182.739a4.225,4.225,0,0,0-.653,8.424q.166.013.329.013a4.244,4.244,0,0,0,4.21-3.9,4.225,4.225,0,0,0-3.886-4.539Zm-.135,1.74A2.48,2.48,0,0,1,6.7,187.142a2.5,2.5,0,0,1-2.663,2.28,2.479,2.479,0,0,1,.187-4.951Q4.318,184.472,4.417,184.479Z" transform="translate(0 -160.542)" fill="#afea30"/>
    </g>
  </g>
</svg>
