<svg xmlns="http://www.w3.org/2000/svg" width="30.022" height="24.921" viewBox="0 0 30.022 24.921">
  <path id="seats-at-the-hall-svgrepo-com" d="M24.458,41.671a.3.3,0,0,1-.3-.3V40.055H15.057v1.321a.3.3,0,0,1-.591,0V40.055H5.413v1.321a.3.3,0,0,1-.591,0V34.288a.3.3,0,0,1,.591,0v5.175h9.052V34.288a.3.3,0,0,1,.591,0v5.175h9.105V34.288a.3.3,0,0,1,.591,0v7.087A.3.3,0,0,1,24.458,41.671Zm-1.472-3.307H16.155a.935.935,0,0,1-.934-.934v-.2a.935.935,0,0,1,.542-.848v-4.82a3.783,3.783,0,0,1,.58-2.019H13.189a3.785,3.785,0,0,1,.58,2.019v4.82a.935.935,0,0,1,.542.848v.2a.935.935,0,0,1-.934.934H6.546a.935.935,0,0,1-.934-.934v-.2a.935.935,0,0,1,.542-.848v-4.82a3.783,3.783,0,0,1,.58-2.019H.591v1.321a.3.3,0,0,1-.591,0V23.78a.3.3,0,0,1,.591,0v5.175h6.6a3.8,3.8,0,0,1,2.451-1.184V23.78a.3.3,0,1,1,.591,0v3.987a3.8,3.8,0,0,1,2.5,1.188H16.8a3.8,3.8,0,0,1,2.486-1.187V23.78a.3.3,0,0,1,.591,0v3.99a3.8,3.8,0,0,1,2.461,1.185H28.93V23.78a.3.3,0,1,1,.591,0v7.087a.3.3,0,1,1-.591,0V29.547H22.8a3.785,3.785,0,0,1,.58,2.019v4.82a.935.935,0,0,1,.542.848v.2A.935.935,0,0,1,22.986,38.364Zm-6.831-1.474a.343.343,0,0,0-.342.342v.2a.343.343,0,0,0,.342.342h6.831a.343.343,0,0,0,.342-.342v-.2a.343.343,0,0,0-.342-.342Zm-9.609,0a.343.343,0,0,0-.342.342v.2a.343.343,0,0,0,.342.342h6.831a.343.343,0,0,0,.342-.342v-.2a.343.343,0,0,0-.342-.342Zm9.808-.626h6.432v-4.7a3.216,3.216,0,1,0-6.432,0Zm-9.608,0h6.432v-4.7a3.216,3.216,0,1,0-6.432,0Zm21.027-8.409H20.942a.935.935,0,0,1-.934-.934v-.2a.935.935,0,0,1,.542-.848v-4.82a3.807,3.807,0,1,1,7.615,0v4.82a.935.935,0,0,1,.542.848v.2A.935.935,0,0,1,27.773,27.856Zm-6.831-1.474a.343.343,0,0,0-.342.342v.2a.343.343,0,0,0,.342.342h6.831a.343.343,0,0,0,.342-.342v-.2a.343.343,0,0,0-.342-.342Zm.2-.626h6.432v-4.7a3.216,3.216,0,0,0-6.432,0Zm-2.977,2.1H11.333a.935.935,0,0,1-.934-.934v-.2a.935.935,0,0,1,.542-.848v-4.82a3.807,3.807,0,1,1,7.614,0v4.82a.935.935,0,0,1,.542.848v.2A.935.935,0,0,1,18.164,27.856Zm-6.831-1.474a.343.343,0,0,0-.342.342v.2a.343.343,0,0,0,.342.342h6.831a.343.343,0,0,0,.342-.342v-.2a.343.343,0,0,0-.342-.342Zm.2-.626h6.432v-4.7a3.216,3.216,0,1,0-6.432,0Zm-2.977,2.1H1.724a.935.935,0,0,1-.934-.934v-.2a.935.935,0,0,1,.542-.848v-4.82a3.807,3.807,0,1,1,7.615,0v4.82a.935.935,0,0,1,.542.848v.2A.935.935,0,0,1,8.555,27.856ZM1.724,26.383a.343.343,0,0,0-.342.342v.2a.343.343,0,0,0,.342.342H8.555a.343.343,0,0,0,.343-.342v-.2a.343.343,0,0,0-.343-.342Zm.2-.626H8.356v-4.7a3.216,3.216,0,1,0-6.432,0Z" transform="translate(0.25 -17)" fill="#afea30" stroke="#afea30" stroke-width="0.5"/>
</svg>
