<svg xmlns="http://www.w3.org/2000/svg" width="40.49" height="40.49" viewBox="0 0 40.49 40.49">
  <g id="_9025951_shower_icon" data-name="9025951_shower_icon" transform="matrix(0.719, -0.695, 0.695, 0.719, 0.326, 20.23)">
    <rect id="Rectangle_3013" data-name="Rectangle 3013" width="28.635" height="28.635" transform="translate(0 -0.47)" fill="none"/>
    <circle id="Ellipse_219" data-name="Ellipse 219" cx="1.253" cy="1.253" r="1.253" transform="translate(5.369 23.87)" fill="#afea30"/>
    <circle id="Ellipse_220" data-name="Ellipse 220" cx="1.253" cy="1.253" r="1.253" transform="translate(8.591 20.649)" fill="#afea30"/>
    <circle id="Ellipse_221" data-name="Ellipse 221" cx="1.253" cy="1.253" r="1.253" transform="translate(1.79 20.291)" fill="#afea30"/>
    <circle id="Ellipse_222" data-name="Ellipse 222" cx="1.253" cy="1.253" r="1.253" transform="translate(5.011 17.069)" fill="#afea30"/>
    <path id="Path_493" data-name="Path 493" d="M70.778,40H67.587a.878.878,0,0,0-.623.256l-3.3,3.3L49.35,45.938a.89.89,0,0,0-.478,1.512l10.9,10.9a.89.89,0,0,0,1.512-.478l2.38-14.311" transform="translate(-43.201 -35.854)" fill="none" stroke="#afea30" stroke-linecap="round" stroke-linejoin="round" stroke-width="2"/>
  </g>
</svg>
