<svg xmlns="http://www.w3.org/2000/svg" width="30.171" height="30.185" viewBox="0 0 30.171 30.185">
  <g id="squash-svgrepo-com" transform="translate(-0.067)">
    <path id="Path_331" data-name="Path 331" d="M100.363,188.509a7.83,7.83,0,0,1-1.486-.144l-7.286,2.847.95.95,10.179-4a8.258,8.258,0,0,1-2.341.344Z" transform="translate(-82.222 -169.042)" fill="#afea30"/>
    <path id="Path_332" data-name="Path 332" d="M.259,215.2c-.382.382-.172,1.262.449,1.884h0a2.168,2.168,0,0,0,1.133.622.873.873,0,0,0,.751-.173l6.444-6.444L6.7,208.759Z" transform="translate(0 -187.543)" fill="#afea30"/>
    <path id="Path_333" data-name="Path 333" d="M70.383,106.956l2.851-7.285a7.817,7.817,0,0,1-.143-1.482,8.254,8.254,0,0,1,.344-2.357l-4,10.182.013.011Z" transform="translate(-62.321 -86.092)" fill="#afea30"/>
    <path id="Path_334" data-name="Path 334" d="M122.867,16.39l-1.506-1.506-1.972,1.972a6.026,6.026,0,0,0,1.932,1.079Zm-5.342-2.251a6.029,6.029,0,0,0,1.08,1.933l1.972-1.972-1.506-1.506Zm.761-2.33-.978-.978a6.776,6.776,0,0,0-.069,2.025Zm7.4-2.815-1.506-1.506,1.376-1.376,1.506,1.506Zm-3.076-1.506-2.03-2.03-1.261,1.491,1.916,1.916Zm.915,3.667-1.506-1.506,1.376-1.376L124.9,9.778Zm3.406-7.988L124.6.833a4.072,4.072,0,0,0-.586.567l-.733.866,2.276,2.276Zm-.591,2.161,1.376-1.376,1.506,1.506-1.376,1.376Zm8.223.961-.011-.011-1.47,1.47L135.2,9.869a3.7,3.7,0,0,0,.257-1.2A3.135,3.135,0,0,0,134.56,6.288Zm-.8-.8-1.47,1.47-1.506-1.506,1.47-1.47Zm-7.952,9.522-1.376,1.376,1.421,1.421a7.656,7.656,0,0,0,1.788-.964Zm-3.667-.915,1.376-1.376,1.506,1.506-1.376,1.376Zm7.858.785-2.031-2.03L126.6,14.229l1.916,1.916Zm2.341-1.981-2.21-2.21-1.376,1.376,2.1,2.1Zm-1.426-3,2.276,2.276.866-.733a4.077,4.077,0,0,0,.567-.586l-2.333-2.333Zm-6.289,8.244-.978-.978-1.047,1.047A6.783,6.783,0,0,0,124.63,18.152Zm-4.184-8.5-1.833-1.833A7.657,7.657,0,0,0,117.65,9.6l1.42,1.42Zm.915,3.667-1.506-1.506,1.376-1.376,1.506,1.506Zm7.266-5.7L130,6.242l1.506,1.506-1.376,1.376Zm-3.86-2.291-2.21-2.21L121.3,4.607l2.1,2.1Zm.915,5.236,1.506,1.506-1.376,1.376-1.506-1.506Zm3.667-.655-1.376,1.376-1.506-1.506L127.843,8.4Zm-.166-9L129.173.9a3.117,3.117,0,0,0-2.234-.9c-.049,0-.1,0-.148,0a3.694,3.694,0,0,0-1.2.257l2.121,2.121ZM131.474,3.2,130,4.672,128.5,3.166l1.47-1.47Z" transform="translate(-105.222 0)" fill="#afea30"/>
  </g>
</svg>
