<svg xmlns="http://www.w3.org/2000/svg" width="40.034" height="30.178" viewBox="0 0 40.034 30.178">
  <g id="Layer_x0020_1" transform="translate(-7.09 -109.563)">
    <path id="Path_471" data-name="Path 471" d="M8,111.891l18.987-2.32a1,1,0,0,1,.261,0l19,2.322a1,1,0,0,1,.879.993V138.74a1,1,0,0,1-1,1H8.091a1,1,0,0,1-1-1V112.887a1,1,0,0,1,.909-1Zm5.211,8.01h3.252a1,1,0,0,1,1,1v3.252a1,1,0,0,1-1,1H13.211a1,1,0,0,1-1-1V120.9a1,1,0,0,1,1-1Zm2.252,2H14.211v1.251h1.251Zm22.29-2H41a1,1,0,0,1,1,1v3.252a1,1,0,0,1-1,1H37.752a1,1,0,0,1-1-1V120.9A1,1,0,0,1,37.752,119.9Zm2.252,2H38.753v1.251H40Zm-10.432-2h3.252a1,1,0,0,1,1,1v3.252a1,1,0,0,1-1,1H29.571a1,1,0,0,1-1-1V120.9A1,1,0,0,1,29.571,119.9Zm2.252,2H30.572v1.251h1.251Zm-10.432-2h3.252a1,1,0,0,1,1,1v3.252a1,1,0,0,1-1,1H21.391a1,1,0,0,1-1-1V120.9A1,1,0,0,1,21.391,119.9Zm2.252,2H22.391v1.251h1.251Zm-10.432-7.824h3.252a1,1,0,0,1,1,1v3.252a1,1,0,0,1-1,1H13.211a1,1,0,0,1-1-1v-3.252a1,1,0,0,1,1-1Zm2.252,2H14.211v1.251h1.251Zm22.29-2H41a1,1,0,0,1,1,1v3.252a1,1,0,0,1-1,1H37.752a1,1,0,0,1-1-1v-3.252A1,1,0,0,1,37.752,114.078Zm2.252,2H38.753v1.251H40Zm-10.432-2h3.252a1,1,0,0,1,1,1v3.252a1,1,0,0,1-1,1H29.571a1,1,0,0,1-1-1v-3.252A1,1,0,0,1,29.571,114.078Zm2.252,2H30.572v1.251h1.251Zm-10.432-2h3.252a1,1,0,0,1,1,1v3.252a1,1,0,0,1-1,1H21.391a1,1,0,0,1-1-1v-3.252A1,1,0,0,1,21.391,114.078Zm2.252,2H22.391v1.251h1.251ZM29.51,137.74v-8.351H24.7v8.351Zm-6.806,0v-9.351a1,1,0,0,1,1-1h6.807a1,1,0,0,1,1,1v9.351H45.123V113.772l-18.016-2.2-18.016,2.2V137.74H22.7Z" transform="translate(0 0)" fill="#afea30"/>
  </g>
</svg>
