<svg xmlns="http://www.w3.org/2000/svg" width="45.412" height="25.734" viewBox="0 0 45.412 25.734">
  <path id="_415890_complex-facilities_pool_swiming_icon" data-name="415890_complex-facilities_pool_swiming_icon" d="M45.412,92.655a5.8,5.8,0,0,1-4.1-1.661,3.26,3.26,0,0,0-4.783,0,5.883,5.883,0,0,1-8.194,0,3.259,3.259,0,0,0-4.781,0,5.883,5.883,0,0,1-8.194,0,3.258,3.258,0,0,0-4.781,0,5.8,5.8,0,0,1-4.1,1.661,5.8,5.8,0,0,1-4.1-1.661A3.242,3.242,0,0,0,0,89.949V87.316a5.8,5.8,0,0,1,4.1,1.661,3.259,3.259,0,0,0,4.781,0,5.881,5.881,0,0,1,8.193,0,3.259,3.259,0,0,0,4.781,0,5.882,5.882,0,0,1,8.194,0,3.259,3.259,0,0,0,4.781,0,5.883,5.883,0,0,1,8.194,0,3.242,3.242,0,0,0,2.391,1.044v2.634ZM35.706,72a5.691,5.691,0,1,0,5.732,5.69A5.711,5.711,0,0,0,35.706,72ZM20.83,78.692l2.824,1.585-7.473,5.885c.32.224.6.46.869.681a3.393,3.393,0,0,0,4.978,0,6.124,6.124,0,0,1,8.531,0c.242.2.46.383.679.537l.8-1.471L27.23,78.135l-6.108-2.684-9.058,4.275,1.459,1.863ZM45.412,95.1a3.241,3.241,0,0,1-2.391-1.044,5.883,5.883,0,0,0-8.194,0,3.259,3.259,0,0,1-4.781,0,5.882,5.882,0,0,0-8.194,0,3.259,3.259,0,0,1-4.781,0,5.881,5.881,0,0,0-8.193,0,3.258,3.258,0,0,1-4.781,0A5.8,5.8,0,0,0,0,92.395v2.634a3.241,3.241,0,0,1,2.39,1.044,5.8,5.8,0,0,0,4.1,1.661,5.8,5.8,0,0,0,4.1-1.661,3.258,3.258,0,0,1,4.781,0,5.883,5.883,0,0,0,8.194,0,3.259,3.259,0,0,1,4.781,0,5.883,5.883,0,0,0,8.194,0,3.26,3.26,0,0,1,4.782,0,5.8,5.8,0,0,0,4.1,1.661V95.1Z" transform="translate(0 -72)" fill="#afea30"/>
</svg>
