<svg xmlns="http://www.w3.org/2000/svg" width="30" height="30" viewBox="0 0 30 30">
  <path id="_2638299_ball_champion_game_play_sport_icon" data-name="2638299_ball_champion_game_play_sport_icon" d="M26.375,5.25A21.751,21.751,0,0,0,24.5,3.375h0A15.444,15.444,0,1,0,26.375,5.25Zm-13.5-2.5c0,.125-.125.25-.125.375-2.5,5-4.5,8-9.125,6.875A12,12,0,0,1,12.875,2.75ZM2.5,15a20.44,20.44,0,0,1,.25-2.75,11.018,11.018,0,0,0,2.625.375c5.125,0,7.5-4.625,9.5-8.5A10.331,10.331,0,0,1,15.75,2.5a12.724,12.724,0,0,1,8.625,4.25,6.228,6.228,0,0,1,1.75,4,5.781,5.781,0,0,1-2.375,4.375c-1.25,1.125-3.625,1.125-6.125,1.125-2.875,0-6,0-8.25,1.75A6.863,6.863,0,0,0,6.75,23.5a3.106,3.106,0,0,0,.125,1A12.467,12.467,0,0,1,2.5,15ZM15,27.5a9.321,9.321,0,0,1-3.25-.5,4.7,4.7,0,0,1-2.5-3.625,4.279,4.279,0,0,1,1.625-3.5c1.5-1.25,4.125-1.25,6.625-1.25,2.875,0,5.75,0,7.875-1.75a10.789,10.789,0,0,0,2-2.25v.125A12.41,12.41,0,0,1,15,27.5Z" fill="#afea30"/>
</svg>
