<svg xmlns="http://www.w3.org/2000/svg" width="57.908" height="57.894" viewBox="0 0 57.908 57.894">
  <path id="_8726496_upload_icon" data-name="8726496_upload_icon" d="M21.428,18.523l6.63-6.659V39.631a2.9,2.9,0,1,0,5.791,0V11.864l6.63,6.659a2.907,2.907,0,1,0,4.111-4.111L33.01,2.83a2.993,2.993,0,0,0-4.111,0L17.317,14.412a2.907,2.907,0,1,0,4.111,4.111ZM57.013,30.945a2.9,2.9,0,0,0-2.9,2.9V51.213a2.9,2.9,0,0,1-2.9,2.9H10.686a2.9,2.9,0,0,1-2.9-2.9V33.84A2.9,2.9,0,1,0,2,33.84V51.213A8.686,8.686,0,0,0,10.686,59.9H51.222a8.686,8.686,0,0,0,8.686-8.686V33.84A2.9,2.9,0,0,0,57.013,30.945Z" transform="translate(-2 -2.005)" fill="#024138"/>
</svg>
