<svg xmlns="http://www.w3.org/2000/svg" width="23.31" height="25.9" viewBox="0 0 23.31 25.9">
  <g id="_7720274_vending_machine_cola_soda_icon" data-name="7720274_vending_machine_cola_soda_icon" transform="translate(-3 -2)">
    <path id="Path_503" data-name="Path 503" d="M22.425,27.9H6.885A3.885,3.885,0,0,1,3,24.015V15.131a1.3,1.3,0,0,1,2.59,0v8.884a1.3,1.3,0,0,0,1.3,1.3h15.54a1.3,1.3,0,0,0,1.3-1.3V5.885a1.3,1.3,0,0,0-1.3-1.3H6.885a1.3,1.3,0,0,0-1.3,1.3V10.6A1.3,1.3,0,1,1,3,10.6V5.885A3.885,3.885,0,0,1,6.885,2h15.54A3.885,3.885,0,0,1,26.31,5.885v18.13A3.885,3.885,0,0,1,22.425,27.9Z" transform="translate(0)" fill="#afea30"/>
    <path id="Path_504" data-name="Path 504" d="M12.3,27.9a1.3,1.3,0,0,1-1.3-1.3V3.3a1.3,1.3,0,1,1,2.59,0v23.31A1.3,1.3,0,0,1,12.3,27.9Z" transform="translate(2.36)" fill="#afea30"/>
    <path id="Path_505" data-name="Path 505" d="M14.655,10.59H4.3A1.3,1.3,0,1,1,4.3,8h10.36a1.3,1.3,0,0,1,0,2.59Z" transform="translate(0 1.77)" fill="#afea30"/>
    <path id="Path_506" data-name="Path 506" d="M14.655,16.59H4.3A1.3,1.3,0,0,1,4.3,14h10.36a1.3,1.3,0,0,1,0,2.59Z" transform="translate(0 3.54)" fill="#afea30"/>
    <path id="Path_507" data-name="Path 507" d="M8.3,11.475A1.3,1.3,0,0,1,7,10.18V6.3a1.3,1.3,0,0,1,2.59,0V10.18A1.3,1.3,0,0,1,8.3,11.475Z" transform="translate(1.18 0.885)" fill="#afea30"/>
    <path id="Path_508" data-name="Path 508" d="M8.3,17.475A1.3,1.3,0,0,1,7,16.18V12.3a1.3,1.3,0,0,1,2.59,0V16.18A1.3,1.3,0,0,1,8.3,17.475Z" transform="translate(1.18 2.655)" fill="#afea30"/>
    <path id="Path_509" data-name="Path 509" d="M15,18.655a1.3,1.3,0,0,1,1.3-1.3h0a1.3,1.3,0,0,1,1.3,1.3h0a1.3,1.3,0,0,1-1.3,1.3h0A1.3,1.3,0,0,1,15,18.655Zm0-5.18a1.3,1.3,0,0,1,1.3-1.3h0a1.3,1.3,0,0,1,1.3,1.3h0a1.3,1.3,0,0,1-1.3,1.3h0A1.3,1.3,0,0,1,15,13.475ZM15,8.3A1.3,1.3,0,0,1,16.3,7h0a1.3,1.3,0,0,1,1.3,1.3h0a1.3,1.3,0,0,1-1.3,1.3h0A1.3,1.3,0,0,1,15,8.3Z" transform="translate(3.54 1.475)" fill="#afea30"/>
  </g>
</svg>
