<svg xmlns="http://www.w3.org/2000/svg" width="30.553" height="30.553" viewBox="0 0 30.553 30.553">
  <g id="Layer_2" data-name="Layer 2" transform="translate(-2 -2)">
    <path id="Path_475" data-name="Path 475" d="M17.276,2A15.276,15.276,0,1,0,32.553,17.276,15.276,15.276,0,0,0,17.276,2Zm-1.39,14.207a9.166,9.166,0,0,1-3.88.626,14.864,14.864,0,0,1,4.98-10.25L18.7,5.055A12.114,12.114,0,0,1,23.28,6.583a12.221,12.221,0,0,0-7.394,9.624Zm-7.638,6.63-2.169-.718a12.221,12.221,0,0,1-1.024-4.736,12.114,12.114,0,0,0,11.992,1.65,9.166,9.166,0,0,1,2.475,3.055,14.879,14.879,0,0,1-11.3.749ZM13.717,5.59A17.858,17.858,0,0,0,9,16.176a9.166,9.166,0,0,1-2.215-1.3l-1.237-.993a12.221,12.221,0,0,1,8.173-8.3ZM8.951,26.2a17.583,17.583,0,0,0,11.5-1.207,9.166,9.166,0,0,1,0,2.566l-.244,1.528A12.068,12.068,0,0,1,8.966,26.152Zm14.528,1.528A12.221,12.221,0,0,0,18.9,16.543a9.166,9.166,0,0,1,1.436-3.621,14.864,14.864,0,0,1,6.324,9.41l.458,2.215a12.221,12.221,0,0,1-3.636,3.239Zm5.7-7.76a17.858,17.858,0,0,0-6.8-9.364,9.166,9.166,0,0,1,2.23-1.268l1.528-.581a12.1,12.1,0,0,1,3.055,11.213Z" transform="translate(0 0)" fill="#afea30"/>
  </g>
</svg>
