<svg xmlns="http://www.w3.org/2000/svg" width="27.911" height="21.5" viewBox="0 0 27.911 21.5">
  <g id="_9035159_wifi_icon" data-name="9035159_wifi_icon" transform="translate(-43.198 -97.425)">
    <path id="Path_487" data-name="Path 487" d="M171.2,272.2a8.915,8.915,0,0,0-11.846,0,1.377,1.377,0,1,0,1.83,2.057,6.162,6.162,0,0,1,8.187,0,1.377,1.377,0,0,0,1.83-2.058Z" transform="translate(-108.113 -161.212)" fill="#afea30"/>
    <path id="Path_488" data-name="Path 488" d="M108.207,183.7a14.517,14.517,0,0,0-9.951,3.928,1.376,1.376,0,1,0,1.88,2.011,11.817,11.817,0,0,1,16.141,0,1.376,1.376,0,1,0,1.88-2.011A14.518,14.518,0,0,0,108.207,183.7Z" transform="translate(-51.041 -80.619)" fill="#afea30"/>
    <path id="Path_489" data-name="Path 489" d="M70.651,102.567a20.255,20.255,0,0,0-26.97,0,1.377,1.377,0,1,0,1.835,2.051,17.5,17.5,0,0,1,23.3,0,1.377,1.377,0,1,0,1.835-2.052Z" transform="translate(0 0)" fill="#afea30"/>
    <circle id="Ellipse_218" data-name="Ellipse 218" cx="2.098" cy="2.098" r="2.098" transform="translate(55.068 114.73)" fill="#afea30"/>
  </g>
</svg>
