<svg xmlns="http://www.w3.org/2000/svg" width="31.802" height="31.52" viewBox="0 0 31.802 31.52">
  <g id="yoga-svgrepo-com" transform="translate(-2.109 -2.25)">
    <path id="Path_479" data-name="Path 479" d="M17.123,15l1.43,3.077s6.433,1.366,6.433,4.616C24.986,25,22.127,25,22.127,25H14.5L10.75,22.92" transform="translate(5.175 8.016)" fill="none" stroke="#afea30" stroke-linecap="round" stroke-linejoin="round" stroke-width="1.5"/>
    <path id="Path_480" data-name="Path 480" d="M12.577,15l-1.43,3.077S4.714,19.447,4.714,22.7C4.714,25,7.573,25,7.573,25h3.455l3.753-2.085L19.367,20" transform="translate(1.145 8.016)" fill="none" stroke="#afea30" stroke-linecap="round" stroke-linejoin="round" stroke-width="1.5"/>
    <path id="Path_481" data-name="Path 481" d="M3,20.551a57.747,57.747,0,0,0,5.718-1.539c2.144-10.77,8.577-10,9.292-10s7.148-.769,9.292,10a57.745,57.745,0,0,0,5.718,1.539" transform="translate(0 4.007)" fill="none" stroke="#afea30" stroke-linecap="round" stroke-linejoin="round" stroke-width="1.5"/>
    <path id="Path_482" data-name="Path 482" d="M13.336,9.671A3.336,3.336,0,1,0,10,6.336,3.336,3.336,0,0,0,13.336,9.671Z" transform="translate(4.674 0)" fill="none" stroke="#afea30" stroke-linecap="round" stroke-linejoin="round" stroke-width="1.5"/>
  </g>
</svg>
