<svg xmlns="http://www.w3.org/2000/svg" width="29.768" height="29.768" viewBox="0 0 29.768 29.768"><g transform="translate(-8.1 -8.1)"><g transform="translate(8.1 8.1)"><path d="M-5.016-240.132A14.884,14.884,0,0,1-19.9-255.016,14.884,14.884,0,0,1-5.016-269.9,14.884,14.884,0,0,1,9.868-255.016,14.884,14.884,0,0,1-5.016-240.132Zm0-28.149a13.316,13.316,0,0,0-13.265,13.265A13.316,13.316,0,0,0-5.016-241.751,13.316,13.316,0,0,0,8.249-255.016,13.316,13.316,0,0,0-5.016-268.281Z" transform="translate(19.9 269.9)" fill="#afea30"/><path d="M-8.7-247.4H7.118v1.744H-8.7Z" transform="translate(15.675 261.412)" fill="#afea30"/><path d="M2.6-258.7H4.344v15.818H2.6Z" transform="translate(11.412 265.675)" fill="#afea30"/></g></g></svg>