<svg xmlns="http://www.w3.org/2000/svg" width="44.612" height="44.612" viewBox="0 0 44.612 44.612"><rect width="44.612" height="44.612" fill="none"/><path d="M14.875,26.616,3.067,36.735A1.858,1.858,0,0,1,0,35.323V7.435A7.436,7.436,0,0,1,7.436,0H22.311a7.436,7.436,0,0,1,7.438,7.435V35.323a1.859,1.859,0,0,1-3.07,1.411ZM26.031,7.435a3.72,3.72,0,0,0-3.72-3.719H7.436A3.718,3.718,0,0,0,3.718,7.435V31.282l9.946-8.526a1.858,1.858,0,0,1,2.419,0l9.948,8.526Z" transform="translate(7.478 3.72)" fill="#fff" fill-rule="evenodd"/></svg>