<svg xmlns="http://www.w3.org/2000/svg" width="44.612" height="44.612" viewBox="0 0 44.612 44.612"><rect width="44.612" height="44.612" fill="none"/><path d="M22.306,3.718V1.859a1.859,1.859,0,0,1,3.718,0V3.718a7.435,7.435,0,0,1,7.435,7.435V29.742a7.435,7.435,0,0,1-7.435,7.435H7.435A7.436,7.436,0,0,1,0,29.742V11.153A7.436,7.436,0,0,1,7.435,3.718V1.859a1.859,1.859,0,0,1,3.718,0V3.718Zm7.435,14.871H3.718V29.742a3.719,3.719,0,0,0,3.718,3.718H26.024a3.718,3.718,0,0,0,3.718-3.718Zm-9.493,6.794,2.621-2.55A1.859,1.859,0,0,1,25.462,25.5l-3.822,3.718a1.86,1.86,0,0,1-2.487.095L17.06,27.563a1.858,1.858,0,1,1,2.381-2.853ZM26.024,7.435V9.294a1.859,1.859,0,0,1-3.718,0V7.435H11.153V9.294a1.859,1.859,0,1,1-3.718,0V7.435a3.718,3.718,0,0,0-3.718,3.718v3.718H29.742V11.153a3.717,3.717,0,0,0-3.718-3.718Z" transform="translate(5.577 3.718)" fill="#fff" fill-rule="evenodd"/></svg>