<svg xmlns="http://www.w3.org/2000/svg" width="90.178" height="84.166" viewBox="0 0 90.178 84.166"><g transform="translate(-1 -2)"><g transform="translate(1 2)"><g transform="translate(78.154)"><path d="M37.521,14.024a1.5,1.5,0,0,0,1.5-1.5V9.515A7.521,7.521,0,0,0,31.509,2H28.5a1.5,1.5,0,0,0,0,3.006h3.006a4.514,4.514,0,0,1,4.509,4.509v3.006A1.5,1.5,0,0,0,37.521,14.024Z" transform="translate(-27 -2)" fill="#263238"/></g><g transform="translate(0 72.142)"><path d="M1,30.509V27.5A1.5,1.5,0,0,1,2.5,26H65.627a1.5,1.5,0,0,1,1.5,1.5v3.006a4.514,4.514,0,0,0,4.509,4.509,1.5,1.5,0,0,1,0,3.006H8.515A7.521,7.521,0,0,1,1,30.509Zm63.125,0v-1.5H4.006v1.5a4.514,4.514,0,0,0,4.509,4.509H65.63A7.481,7.481,0,0,1,64.125,30.509Z" transform="translate(-1 -26)" fill="#263238"/></g></g><g transform="translate(25.047 11.018)"><g transform="translate(0 0)"><g transform="translate(38.671 38.665)"><path d="M22.3,18.3a1.508,1.508,0,0,0,0,2.128l4.25,4.25a1.5,1.5,0,1,0,2.125-2.125L24.43,18.3A1.5,1.5,0,0,0,22.3,18.3Z" transform="translate(-21.865 -17.863)" fill="#263238"/></g><path d="M33.047,53.095A24.047,24.047,0,1,1,46.89,9.383a1.5,1.5,0,1,1-1.731,2.453A21,21,0,1,0,53.121,22.72a1.5,1.5,0,0,1,2.868-.9,24.067,24.067,0,0,1-22.941,31.28Z" transform="translate(-9 -5)" fill="#263238"/><g transform="translate(42.083 42.083)"><path d="M29.012,22.006a3,3,0,0,1,2.125.881L43.161,34.91a3.005,3.005,0,1,1-4.25,4.25L26.887,27.137a3.006,3.006,0,0,1,2.125-5.131Zm0-3.006a6.011,6.011,0,0,0-4.25,10.262L36.785,41.286a6.011,6.011,0,1,0,8.5-8.5L33.262,20.761A5.971,5.971,0,0,0,29.012,19Z" transform="translate(-23 -19)" fill="#263238"/></g></g><g transform="translate(13.526 6.012)"><path d="M22.518,34.053h-.036a1.512,1.512,0,0,1-1.121-.541l-7.515-9.018a1.5,1.5,0,1,1,2.312-1.927l6.412,7.7L43.953,7.487a1.5,1.5,0,1,1,2.212,2.032L23.624,33.566A1.5,1.5,0,0,1,22.518,34.053Z" transform="translate(-13.5 -7)" fill="#263238"/></g></g><g transform="translate(16.03 2)"><path d="M73.633,5.006a1.5,1.5,0,1,0,0-3.006H13.515A7.521,7.521,0,0,0,6,9.515V69.633a1.5,1.5,0,0,0,3.006,0V9.515a4.514,4.514,0,0,1,4.509-4.509h54.11a7.488,7.488,0,0,0-1.506,4.509V48.592a1.5,1.5,0,0,0,1.5,1.5h0a1.5,1.5,0,0,0,1.5-1.5V9.515A4.514,4.514,0,0,1,73.633,5.006Z" transform="translate(-6 -2)" fill="#263238"/><path d="M28.01,33.012H22.75v3.006h5.26A7.521,7.521,0,0,0,35.525,28.5h0a1.5,1.5,0,0,0-1.5-1.5h0a1.5,1.5,0,0,0-1.5,1.5h0A4.514,4.514,0,0,1,28.01,33.012Z" transform="translate(27.599 48.148)" fill="#263238"/></g></g></svg>