<svg xmlns="http://www.w3.org/2000/svg" width="24" height="24" viewBox="0 0 24 24"><rect width="24" height="24" fill="none"/><path d="M18,4.5A3.5,3.5,0,1,1,14.5,1,3.5,3.5,0,0,1,18,4.5ZM16,15l2,2v1H0V17l2-2V9A6.99,6.99,0,0,1,7,2.29V2A2.006,2.006,0,0,1,9,0a1.93,1.93,0,0,1,1.5.71,5.511,5.511,0,0,0,4,9.29A5.963,5.963,0,0,0,16,9.79ZM7.586,20.414A2,2,0,0,1,7,19h4a2,2,0,0,1-3.414,1.414Z" transform="translate(3 2)" fill="#0a0a0a"/><circle cx="3.5" cy="3.5" r="3.5" transform="translate(14 3)" fill="#d81a1a"/></svg>